<svg width="439" height="439" viewBox="0 0 439 439" fill="none" xmlns="http://www.w3.org/2000/svg">
<circle cx="219.5" cy="219.5" r="219.5" fill="#A91523"/>
<path fill-rule="evenodd" clip-rule="evenodd" d="M165.817 91.774C179.573 91.1407 183.959 91 219 91C254.041 91 258.427 91.1525 272.171 91.774C285.916 92.3955 295.298 94.5885 303.507 97.7666C312.103 101.015 319.901 106.093 326.351 112.66C332.919 119.099 337.985 126.885 341.222 135.493C344.411 143.702 346.593 153.084 347.226 166.805C347.859 180.585 348 184.971 348 220C348 255.041 347.848 259.427 347.226 273.183C346.604 286.904 344.411 296.286 341.222 304.495C337.985 313.104 332.91 320.904 326.351 327.351C319.901 333.919 312.103 338.985 303.507 342.222C295.298 345.411 285.916 347.593 272.195 348.226C258.427 348.859 254.041 349 219 349C183.959 349 179.573 348.848 165.817 348.226C152.096 347.604 142.714 345.411 134.505 342.222C125.896 338.984 118.096 333.91 111.649 327.351C105.086 320.909 100.007 313.113 96.7666 304.507C93.5885 296.298 91.4073 286.916 90.774 273.195C90.1407 259.415 90 255.029 90 220C90 184.959 90.1525 180.573 90.774 166.829C91.3955 153.084 93.5885 143.702 96.7666 135.493C100.012 126.886 105.094 119.09 111.66 112.649C118.099 106.087 125.891 101.009 134.493 97.7666C142.702 94.5885 152.084 92.4073 165.805 91.774H165.817ZM271.128 114.994C257.524 114.372 253.443 114.243 219 114.243C184.557 114.243 180.476 114.372 166.872 114.994C154.289 115.569 147.464 117.668 142.913 119.439C136.897 121.784 132.593 124.563 128.078 129.078C123.799 133.242 120.505 138.311 118.439 143.913C116.668 148.464 114.569 155.289 113.994 167.872C113.372 181.476 113.243 185.557 113.243 220C113.243 254.443 113.372 258.524 113.994 272.128C114.569 284.711 116.668 291.536 118.439 296.087C120.503 301.68 123.798 306.758 128.078 310.922C132.242 315.202 137.32 318.497 142.913 320.561C147.464 322.332 154.289 324.431 166.872 325.006C180.476 325.628 184.545 325.757 219 325.757C253.455 325.757 257.524 325.628 271.128 325.006C283.711 324.431 290.536 322.332 295.087 320.561C301.103 318.216 305.407 315.437 309.922 310.922C314.202 306.758 317.497 301.68 319.561 296.087C321.332 291.536 323.431 284.711 324.006 272.128C324.628 258.524 324.757 254.443 324.757 220C324.757 185.557 324.628 181.476 324.006 167.872C323.431 155.289 321.332 148.464 319.561 143.913C317.216 137.897 314.437 133.593 309.922 129.078C305.758 124.799 300.689 121.505 295.087 119.439C290.536 117.668 283.711 115.569 271.128 114.994V114.994ZM202.523 259.767C211.725 263.598 221.971 264.115 231.512 261.23C241.053 258.345 249.296 252.237 254.834 243.95C260.372 235.663 262.861 225.71 261.875 215.791C260.89 205.873 256.492 196.604 249.432 189.568C244.932 185.07 239.49 181.626 233.499 179.484C227.508 177.342 221.116 176.555 214.784 177.179C208.452 177.804 202.337 179.824 196.88 183.096C191.423 186.367 186.759 190.808 183.224 196.098C179.689 201.388 177.37 207.397 176.436 213.69C175.502 219.984 175.974 226.407 177.82 232.496C179.666 238.585 182.839 244.189 187.11 248.904C191.382 253.62 196.646 257.33 202.523 259.767ZM172.114 173.114C178.271 166.957 185.581 162.073 193.626 158.741C201.67 155.409 210.293 153.694 219 153.694C227.707 153.694 236.33 155.409 244.374 158.741C252.419 162.073 259.729 166.957 265.886 173.114C272.043 179.271 276.927 186.581 280.259 194.626C283.591 202.67 285.306 211.293 285.306 220C285.306 228.707 283.591 237.33 280.259 245.374C276.927 253.419 272.043 260.729 265.886 266.886C253.451 279.32 236.586 286.306 219 286.306C201.414 286.306 184.549 279.32 172.114 266.886C159.68 254.451 152.694 237.586 152.694 220C152.694 202.414 159.68 185.549 172.114 173.114V173.114ZM300.012 163.568C301.538 162.129 302.759 160.398 303.604 158.478C304.449 156.559 304.9 154.489 304.931 152.391C304.961 150.294 304.571 148.212 303.782 146.268C302.994 144.325 301.823 142.559 300.34 141.076C298.857 139.593 297.091 138.422 295.147 137.634C293.204 136.845 291.122 136.455 289.024 136.485C286.927 136.516 284.857 136.967 282.937 137.812C281.018 138.657 279.287 139.878 277.847 141.404C275.048 144.371 273.516 148.313 273.575 152.391C273.635 156.47 275.281 160.365 278.166 163.25C281.05 166.134 284.946 167.781 289.024 167.841C293.103 167.9 297.045 166.368 300.012 163.568V163.568Z" fill="white"/>
</svg>
