<svg width="1246" height="928" viewBox="0 0 1246 928" fill="none" xmlns="http://www.w3.org/2000/svg">
<path d="M1245.24 815.383H0V816.006H1245.24V815.383Z" fill="#EBEBEB"/>
<path d="M1120.47 855.455H1037.98V856.078H1120.47V855.455Z" fill="#EBEBEB"/>
<path d="M824.897 862.229H803.255V862.852H824.897V862.229Z" fill="#EBEBEB"/>
<path d="M1035.49 832.344H987.7V832.966H1035.49V832.344Z" fill="#EBEBEB"/>
<path d="M238.215 836.528H130.651V837.15H238.215V836.528Z" fill="#EBEBEB"/>
<path d="M276.169 836.528H260.405V837.15H276.169V836.528Z" fill="#EBEBEB"/>
<path d="M560.732 847.037H327.424V847.66H560.732V847.037Z" fill="#EBEBEB"/>
<path d="M590.244 704.308H109.357C105.59 704.301 101.979 702.8 99.3176 700.134C96.6561 697.468 95.1612 693.855 95.1613 690.087V14.0961C95.194 10.3505 96.7033 6.76907 99.3613 4.12976C102.019 1.49045 105.611 0.00641644 109.357 0H590.244C594.016 0 597.633 1.49824 600.299 4.16513C602.966 6.83202 604.465 10.4491 604.465 14.2206V690.087C604.465 693.859 602.966 697.476 600.299 700.143C597.633 702.81 594.016 704.308 590.244 704.308V704.308ZM109.357 0.498098C105.755 0.504695 102.303 1.94025 99.7578 4.48966C97.2131 7.03907 95.7839 10.494 95.7839 14.0961V690.087C95.7839 693.689 97.2131 697.144 99.7578 699.694C102.303 702.243 105.755 703.679 109.357 703.685H590.244C593.848 703.679 597.303 702.244 599.852 699.695C602.401 697.147 603.835 693.692 603.842 690.087V14.0961C603.835 10.4917 602.401 7.03684 599.852 4.48814C597.303 1.93944 593.848 0.504681 590.244 0.498098H109.357Z" fill="#EBEBEB"/>
<path d="M1128.96 704.308H648.048C644.278 704.301 640.665 702.801 638 700.136C635.334 697.47 633.834 693.857 633.827 690.087V14.0961C633.867 10.3482 635.382 6.76683 638.043 4.1282C640.705 1.48958 644.3 0.00634647 648.048 0H1128.96C1132.7 0.0129617 1136.29 1.49989 1138.94 4.1385C1141.59 6.77711 1143.1 10.3548 1143.13 14.0961V690.087C1143.13 693.85 1141.64 697.46 1138.98 700.125C1136.33 702.791 1132.72 704.295 1128.96 704.308V704.308ZM648.048 0.498098C644.444 0.504681 640.989 1.93944 638.44 4.48814C635.891 7.03684 634.457 10.4917 634.45 14.0961V690.087C634.457 693.692 635.891 697.147 638.44 699.695C640.989 702.244 644.444 703.679 648.048 703.685H1128.96C1132.56 703.679 1136.02 702.244 1138.57 699.695C1141.12 697.147 1142.55 693.692 1142.56 690.087V14.0961C1142.55 10.4917 1141.12 7.03684 1138.57 4.48814C1136.02 1.93944 1132.56 0.504681 1128.96 0.498098H648.048Z" fill="#EBEBEB"/>
<path d="M699.975 684.783H869.552L869.552 106.817H699.975V684.783Z" fill="#FAFAFA"/>
<path d="M696.04 127.338L873.461 127.338V98.9717L696.04 98.9717V127.338Z" fill="#F0F0F0"/>
<path d="M696.04 144.647L873.461 144.647V130.476L696.04 130.476V144.647Z" fill="#F0F0F0"/>
<path d="M696.04 165.692L873.461 165.692V151.521L696.04 151.521V165.692Z" fill="#F0F0F0"/>
<path d="M696.04 186.761L873.461 186.761V172.59L696.04 172.59V186.761Z" fill="#F0F0F0"/>
<path d="M696.04 207.806L873.461 207.806V193.635L696.04 193.635V207.806Z" fill="#F0F0F0"/>
<path d="M696.04 228.85L873.461 228.85V214.679L696.04 214.679V228.85Z" fill="#F0F0F0"/>
<path d="M696.04 249.895L873.461 249.895V235.724L696.04 235.724V249.895Z" fill="#F0F0F0"/>
<path d="M696.04 270.939H873.461V256.769H696.04V270.939Z" fill="#F0F0F0"/>
<path d="M696.04 291.984H873.461V277.813H696.04V291.984Z" fill="#F0F0F0"/>
<path d="M696.04 313.029H873.461V298.858H696.04V313.029Z" fill="#F0F0F0"/>
<path d="M696.04 334.073H873.461V319.902H696.04V334.073Z" fill="#F0F0F0"/>
<path d="M696.04 355.118H873.461V340.947H696.04V355.118Z" fill="#F0F0F0"/>
<path d="M696.04 376.162H873.461V361.991H696.04V376.162Z" fill="#F0F0F0"/>
<path d="M696.04 397.207H873.461V383.036H696.04V397.207Z" fill="#F0F0F0"/>
<path d="M696.04 418.251H873.461V404.08H696.04V418.251Z" fill="#F0F0F0"/>
<path d="M696.04 439.321H873.461V425.15H696.04V439.321Z" fill="#F0F0F0"/>
<path d="M696.04 460.365H873.461V446.195H696.04V460.365Z" fill="#F0F0F0"/>
<path d="M696.04 481.41H873.461V467.239H696.04V481.41Z" fill="#F0F0F0"/>
<path d="M696.04 502.455H873.461V488.284H696.04V502.455Z" fill="#F0F0F0"/>
<path d="M696.04 523.499H873.461V509.328H696.04V523.499Z" fill="#F0F0F0"/>
<path d="M696.04 544.544H873.461V530.373H696.04V544.544Z" fill="#F0F0F0"/>
<path d="M696.04 565.588H873.461V551.417H696.04V565.588Z" fill="#F0F0F0"/>
<path d="M696.04 586.633H873.461V572.462H696.04V586.633Z" fill="#F0F0F0"/>
<path d="M696.04 607.677H873.461V593.507H696.04V607.677Z" fill="#F0F0F0"/>
<path d="M696.04 628.722H873.461V614.551H696.04V628.722Z" fill="#F0F0F0"/>
<path d="M696.04 649.766H873.461V635.596H696.04V649.766Z" fill="#F0F0F0"/>
<path d="M696.04 670.836H873.461V656.665H696.04V670.836Z" fill="#F0F0F0"/>
<path d="M696.04 691.881H873.461V677.71H696.04V691.881Z" fill="#F0F0F0"/>
<path d="M911.914 684.783H1081.49V106.817H911.914V684.783Z" fill="#FAFAFA"/>
<path d="M907.98 127.338L1085.4 127.338V98.9717L907.98 98.9717V127.338Z" fill="#F0F0F0"/>
<path d="M907.98 144.647L1085.4 144.647V130.476L907.98 130.476V144.647Z" fill="#F0F0F0"/>
<path d="M907.98 165.692L1085.4 165.692V151.521L907.98 151.521V165.692Z" fill="#F0F0F0"/>
<path d="M907.98 186.761L1085.4 186.761V172.59L907.98 172.59V186.761Z" fill="#F0F0F0"/>
<path d="M907.98 207.806L1085.4 207.806V193.635L907.98 193.635V207.806Z" fill="#F0F0F0"/>
<path d="M907.98 228.85L1085.4 228.85V214.679L907.98 214.679V228.85Z" fill="#F0F0F0"/>
<path d="M907.98 249.895L1085.4 249.895V235.724L907.98 235.724V249.895Z" fill="#F0F0F0"/>
<path d="M907.98 270.939H1085.4V256.769H907.98V270.939Z" fill="#F0F0F0"/>
<path d="M907.98 291.984H1085.4V277.813H907.98V291.984Z" fill="#F0F0F0"/>
<path d="M907.98 313.029H1085.4V298.858H907.98V313.029Z" fill="#F0F0F0"/>
<path d="M907.98 334.073H1085.4V319.902H907.98V334.073Z" fill="#F0F0F0"/>
<path d="M907.98 355.118H1085.4V340.947H907.98V355.118Z" fill="#F0F0F0"/>
<path d="M907.98 376.162H1085.4V361.991H907.98V376.162Z" fill="#F0F0F0"/>
<path d="M907.98 397.207H1085.4V383.036H907.98V397.207Z" fill="#F0F0F0"/>
<path d="M907.98 418.251H1085.4V404.08H907.98V418.251Z" fill="#F0F0F0"/>
<path d="M907.98 439.321H1085.4V425.15H907.98V439.321Z" fill="#F0F0F0"/>
<path d="M907.98 460.365H1085.4V446.195H907.98V460.365Z" fill="#F0F0F0"/>
<path d="M907.98 481.41H1085.4V467.239H907.98V481.41Z" fill="#F0F0F0"/>
<path d="M907.98 502.455H1085.4V488.284H907.98V502.455Z" fill="#F0F0F0"/>
<path d="M907.98 523.499H1085.4V509.328H907.98V523.499Z" fill="#F0F0F0"/>
<path d="M907.98 544.544H1085.4V530.373H907.98V544.544Z" fill="#F0F0F0"/>
<path d="M907.98 565.588H1085.4V551.417H907.98V565.588Z" fill="#F0F0F0"/>
<path d="M907.98 586.633H1085.4V572.462H907.98V586.633Z" fill="#F0F0F0"/>
<path d="M907.98 607.677H1085.4V593.507H907.98V607.677Z" fill="#F0F0F0"/>
<path d="M907.98 628.722H1085.4V614.551H907.98V628.722Z" fill="#F0F0F0"/>
<path d="M907.98 649.766H1085.4V635.596H907.98V649.766Z" fill="#F0F0F0"/>
<path d="M907.98 670.836H1085.4V656.665H907.98V670.836Z" fill="#F0F0F0"/>
<path d="M907.98 691.881H1085.4V677.71H907.98V691.881Z" fill="#F0F0F0"/>
<path d="M384.879 688.319H554.456L554.456 110.353H384.879L384.879 688.319Z" fill="#FAFAFA"/>
<path d="M380.944 130.875L558.366 130.875V102.508L380.944 102.508V130.875Z" fill="#F0F0F0"/>
<path d="M380.944 136.628L558.366 136.628V134.013L380.944 134.013V136.628Z" fill="#F0F0F0"/>
<path d="M380.944 142.555L558.366 142.555V139.94L380.944 139.94V142.555Z" fill="#F0F0F0"/>
<path d="M380.944 148.458L558.366 148.458V145.843L380.944 145.843V148.458Z" fill="#F0F0F0"/>
<path d="M380.944 154.385L558.366 154.385V151.77L380.944 151.77V154.385Z" fill="#F0F0F0"/>
<path d="M380.944 160.312L558.366 160.312V157.697L380.944 157.697V160.312Z" fill="#F0F0F0"/>
<path d="M380.944 166.24L558.366 166.24V163.625L380.944 163.625V166.24Z" fill="#F0F0F0"/>
<path d="M380.944 172.142L558.366 172.142V169.527L380.944 169.527V172.142Z" fill="#F0F0F0"/>
<path d="M380.944 178.069L558.366 178.069V175.454L380.944 175.454V178.069Z" fill="#F0F0F0"/>
<path d="M380.944 184.022L558.366 184.022V181.407L380.944 181.407V184.022Z" fill="#F0F0F0"/>
<path d="M380.944 189.924L558.366 189.924V187.309L380.944 187.309V189.924Z" fill="#F0F0F0"/>
<path d="M380.944 195.851L558.366 195.851V193.236L380.944 193.236V195.851Z" fill="#F0F0F0"/>
<path d="M380.944 201.754L558.366 201.754V199.139L380.944 199.139V201.754Z" fill="#F0F0F0"/>
<path d="M380.944 207.706L558.366 207.706V205.091L380.944 205.091V207.706Z" fill="#F0F0F0"/>
<path d="M380.944 213.609L558.366 213.609V210.994L380.944 210.994V213.609Z" fill="#F0F0F0"/>
<path d="M380.944 219.536L558.366 219.536V216.921L380.944 216.921V219.536Z" fill="#F0F0F0"/>
<path d="M380.944 225.438L558.366 225.438V222.823L380.944 222.823V225.438Z" fill="#F0F0F0"/>
<path d="M380.944 231.366L558.366 231.366V228.751L380.944 228.751V231.366Z" fill="#F0F0F0"/>
<path d="M380.944 237.293L558.366 237.293V234.678L380.944 234.678V237.293Z" fill="#F0F0F0"/>
<path d="M172.914 688.319H342.491L342.491 110.353H172.914L172.914 688.319Z" fill="#FAFAFA"/>
<path d="M168.979 130.875L346.401 130.875V102.508L168.979 102.508V130.875Z" fill="#F0F0F0"/>
<path d="M168.979 136.628L346.401 136.628V134.013L168.979 134.013V136.628Z" fill="#F0F0F0"/>
<path d="M168.979 142.555L346.401 142.555V139.94L168.979 139.94V142.555Z" fill="#F0F0F0"/>
<path d="M168.979 148.458L346.401 148.458V145.843L168.979 145.843V148.458Z" fill="#F0F0F0"/>
<path d="M168.979 154.385L346.401 154.385V151.77L168.979 151.77V154.385Z" fill="#F0F0F0"/>
<path d="M168.979 160.312L346.401 160.312V157.697L168.979 157.697V160.312Z" fill="#F0F0F0"/>
<path d="M168.979 166.24L346.401 166.24V163.625L168.979 163.625V166.24Z" fill="#F0F0F0"/>
<path d="M168.979 172.142L346.401 172.142V169.527L168.979 169.527V172.142Z" fill="#F0F0F0"/>
<path d="M168.979 178.069L346.401 178.069V175.454L168.979 175.454V178.069Z" fill="#F0F0F0"/>
<path d="M168.979 184.022L346.401 184.022V181.407L168.979 181.407V184.022Z" fill="#F0F0F0"/>
<path d="M168.979 189.924L346.401 189.924V187.309L168.979 187.309V189.924Z" fill="#F0F0F0"/>
<path d="M168.979 195.851L346.401 195.851V193.236L168.979 193.236V195.851Z" fill="#F0F0F0"/>
<path d="M168.979 201.754L346.401 201.754V199.139L168.979 199.139V201.754Z" fill="#F0F0F0"/>
<path d="M168.979 207.706L346.401 207.706V205.091L168.979 205.091V207.706Z" fill="#F0F0F0"/>
<path d="M168.979 213.609L346.401 213.609V210.994L168.979 210.994V213.609Z" fill="#F0F0F0"/>
<path d="M168.979 219.536L346.401 219.536V216.921L168.979 216.921V219.536Z" fill="#F0F0F0"/>
<path d="M168.979 225.438L346.401 225.438V222.823L168.979 222.823V225.438Z" fill="#F0F0F0"/>
<path d="M168.979 231.366L346.401 231.366V228.751L168.979 228.751V231.366Z" fill="#F0F0F0"/>
<path d="M168.979 237.293L346.401 237.293V234.678L168.979 234.678V237.293Z" fill="#F0F0F0"/>
<path d="M625.609 760.344C625.609 760.344 613.804 734.567 627.302 709.14C640.801 683.712 644.736 677.76 636.094 672.554C627.452 667.349 623.641 692.877 623.641 692.877C619.374 681.334 618.937 668.724 622.396 656.914C628.373 638.534 632.134 608.599 623.965 605.386C615.796 602.173 622.396 642.743 615.298 656.566C611.685 646.856 609.349 636.718 608.35 626.406C607.378 611.637 608.898 588.077 602.447 582.025C595.997 575.974 591.863 580.158 598.189 612.733C602.005 632.203 604.114 651.97 604.489 671.807C604.489 671.807 590.493 629.071 581.079 627.825C571.665 626.58 571.665 640.427 579.734 652.431C587.803 664.435 603.319 685.928 605.859 697.011C605.859 697.011 590.468 664.834 576.621 674.597C562.774 684.359 588.675 703.885 600.231 710.908C611.787 717.931 619.681 762.087 619.681 762.087L625.609 760.344Z" fill="#E0E0E0"/>
<path d="M616.294 770.903C616.294 770.903 627.8 744.953 614.003 719.749C600.206 694.545 596.196 688.618 604.739 683.288C613.281 677.959 617.54 703.411 617.54 703.411C621.676 691.826 621.973 679.216 618.386 667.449C612.16 649.169 608.051 619.283 616.195 615.946C624.339 612.608 618.212 653.303 625.459 667.001C628.957 657.243 631.167 647.071 632.034 636.741C632.856 621.948 631.038 598.413 637.414 592.261C643.789 586.11 647.998 590.244 642.021 622.919C638.442 642.435 636.576 662.227 636.442 682.068C636.442 682.068 649.941 639.132 659.33 637.737C668.719 636.343 668.893 650.19 660.974 662.318C653.054 674.447 637.787 696.189 635.372 707.297C635.372 707.297 650.314 674.92 664.336 684.534C678.357 694.147 652.655 714.021 641.199 721.193C629.743 728.366 622.247 772.522 622.247 772.522L616.294 770.903Z" fill="#EBEBEB"/>
<path d="M669.342 752.399H574.305L582.001 820.414H661.646L669.342 752.399Z" fill="#EBEBEB"/>
<path d="M622.62 927.854C889.307 927.854 1105.5 915.231 1105.5 899.661C1105.5 884.091 889.307 871.469 622.62 871.469C355.933 871.469 139.741 884.091 139.741 899.661C139.741 915.231 355.933 927.854 622.62 927.854Z" fill="#F5F5F5"/>
<path d="M967.95 617.166C967.95 617.166 906.311 604.714 846.813 610.741C787.316 616.768 874.806 694.52 874.806 694.52H887.109C887.109 694.52 840.737 645.234 843.327 632.956C845.917 620.678 962.671 636.866 962.671 636.866L967.95 617.166Z" fill="#263238"/>
<path opacity="0.2" d="M967.95 617.166C967.95 617.166 906.311 604.714 846.813 610.741C787.316 616.768 874.806 694.52 874.806 694.52H887.109C887.109 694.52 840.737 645.234 843.327 632.956C845.917 620.678 962.671 636.866 962.671 636.866L967.95 617.166Z" fill="white"/>
<path d="M945.71 691.831C965.163 615.66 976.434 537.632 979.332 459.07C979.628 451.6 982.804 444.534 988.194 439.352C993.584 434.171 1000.77 431.277 1008.25 431.277H1060.12C1067.77 431.277 1075.11 434.305 1080.53 439.7C1085.96 445.095 1089.02 452.417 1089.06 460.067C1089.26 507.386 1085.95 613.331 1059.18 691.831H945.71Z" fill="#263238"/>
<path opacity="0.4" d="M945.71 691.831C965.163 615.66 976.434 537.632 979.332 459.07C979.628 451.6 982.804 444.534 988.194 439.352C993.584 434.171 1000.77 431.277 1008.25 431.277H1060.12C1067.77 431.277 1075.11 434.305 1080.53 439.7C1085.96 445.095 1089.02 452.417 1089.06 460.067C1089.26 507.386 1085.95 613.331 1059.18 691.831H945.71Z" fill="white"/>
<path d="M930.568 678.656C938.986 646.778 957.964 564.343 961.973 455.434C962.283 447.334 965.719 439.669 971.562 434.049C977.404 428.43 985.197 425.294 993.303 425.299H1049.54C1057.82 425.306 1065.77 428.592 1071.64 434.439C1077.51 440.286 1080.83 448.219 1080.87 456.505C1081.09 507.709 1077.51 612.434 1048.62 697.534L941.526 693.599C939.751 693.517 938.017 693.039 936.451 692.199C934.885 691.36 933.526 690.18 932.475 688.747C931.424 687.314 930.708 685.664 930.378 683.918C930.048 682.172 930.113 680.374 930.568 678.656V678.656Z" fill="#FF3333"/>
<path opacity="0.2" d="M930.568 678.656C938.986 646.778 957.964 564.343 961.973 455.434C962.283 447.334 965.719 439.669 971.562 434.049C977.404 428.43 985.197 425.294 993.303 425.299H1049.54C1057.82 425.306 1065.77 428.592 1071.64 434.439C1077.51 440.286 1080.83 448.219 1080.87 456.505C1081.09 507.709 1077.51 612.434 1048.62 697.534L941.526 693.599C939.751 693.517 938.017 693.039 936.451 692.199C934.885 691.36 933.526 690.18 932.475 688.747C931.424 687.314 930.708 685.664 930.378 683.918C930.048 682.172 930.113 680.374 930.568 678.656V678.656Z" fill="black"/>
<path d="M1041.82 694.321H851.62V664.61C851.62 661.307 852.932 658.14 855.267 655.805C857.603 653.469 860.77 652.157 864.073 652.157H1029.37C1032.67 652.157 1035.84 653.469 1038.17 655.805C1040.51 658.14 1041.82 661.307 1041.82 664.61V694.321Z" fill="#FF3333"/>
<path d="M1035.69 842.555L974.749 836.553V750.905H950.592V836.528L889.401 842.555C886.468 842.839 883.746 844.206 881.766 846.389C879.786 848.571 878.69 851.413 878.692 854.359V863.524H1046.4V854.359C1046.4 851.413 1045.31 848.571 1043.33 846.389C1041.35 844.206 1038.62 842.839 1035.69 842.555V842.555Z" fill="#263238"/>
<path opacity="0.4" d="M1035.69 842.555L974.749 836.553V750.905H950.592V836.528L889.401 842.555C886.468 842.839 883.746 844.206 881.766 846.389C879.786 848.571 878.69 851.413 878.692 854.359V863.524H1046.4V854.359C1046.4 851.413 1045.31 848.571 1043.33 846.389C1041.35 844.206 1038.62 842.839 1035.69 842.555V842.555Z" fill="white"/>
<path d="M900.931 874.856C900.931 877.979 900.005 881.032 898.27 883.628C896.535 886.225 894.069 888.249 891.184 889.444C888.299 890.639 885.124 890.952 882.061 890.342C878.998 889.733 876.185 888.229 873.977 886.021C871.769 883.813 870.265 880.999 869.656 877.937C869.046 874.874 869.359 871.699 870.554 868.814C871.749 865.929 873.773 863.463 876.37 861.728C878.966 859.993 882.019 859.066 885.142 859.066C889.329 859.066 893.346 860.73 896.307 863.691C899.268 866.652 900.931 870.668 900.931 874.856Z" fill="#263238"/>
<path opacity="0.4" d="M885.142 883.174C883.497 883.174 881.888 882.686 880.52 881.772C879.152 880.858 878.086 879.559 877.457 878.039C876.827 876.519 876.662 874.847 876.983 873.233C877.304 871.62 878.097 870.138 879.26 868.974C880.423 867.811 881.905 867.019 883.519 866.698C885.133 866.377 886.805 866.542 888.325 867.171C889.845 867.801 891.144 868.867 892.058 870.235C892.972 871.603 893.46 873.211 893.46 874.856C893.453 877.06 892.575 879.172 891.016 880.731C889.458 882.289 887.346 883.168 885.142 883.174V883.174Z" fill="white"/>
<path d="M1024.16 874.856C1024.16 877.979 1025.09 881.032 1026.82 883.628C1028.56 886.225 1031.02 888.249 1033.91 889.444C1036.79 890.639 1039.97 890.952 1043.03 890.342C1046.09 889.733 1048.91 888.229 1051.12 886.021C1053.32 883.813 1054.83 880.999 1055.44 877.937C1056.05 874.874 1055.73 871.699 1054.54 868.814C1053.34 865.929 1051.32 863.463 1048.72 861.728C1046.13 859.993 1043.07 859.067 1039.95 859.067C1037.88 859.063 1035.82 859.469 1033.9 860.262C1031.99 861.054 1030.24 862.217 1028.78 863.684C1027.31 865.151 1026.15 866.893 1025.36 868.81C1024.56 870.727 1024.16 872.782 1024.16 874.856V874.856Z" fill="#263238"/>
<path opacity="0.4" d="M1039.95 883.174C1038.3 883.174 1036.7 882.686 1035.33 881.772C1033.96 880.858 1032.89 879.559 1032.27 878.039C1031.64 876.519 1031.47 874.847 1031.79 873.233C1032.11 871.62 1032.9 870.138 1034.07 868.974C1035.23 867.811 1036.71 867.019 1038.33 866.698C1039.94 866.377 1041.61 866.542 1043.13 867.171C1044.65 867.801 1045.95 868.867 1046.87 870.235C1047.78 871.603 1048.27 873.211 1048.27 874.856C1048.27 877.062 1047.39 879.178 1045.83 880.738C1044.27 882.298 1042.16 883.174 1039.95 883.174V883.174Z" fill="white"/>
<path d="M946.383 693.026H978.759V759.024C978.759 761.752 977.675 764.368 975.746 766.297C973.818 768.226 971.201 769.31 968.473 769.31H956.594C953.866 769.31 951.25 768.226 949.321 766.297C947.392 764.368 946.308 761.752 946.308 759.024V693.026H946.383Z" fill="#263238"/>
<path opacity="0.2" d="M946.383 693.026H978.759V759.024C978.759 761.752 977.675 764.368 975.746 766.297C973.818 768.226 971.201 769.31 968.473 769.31H956.594C953.866 769.31 951.25 768.226 949.321 766.297C947.392 764.368 946.308 761.752 946.308 759.024V693.026H946.383Z" fill="white"/>
<path d="M849.927 701.793H1056.36C1059.13 701.793 1061.37 699.551 1061.37 696.787V694.446C1061.37 691.681 1059.13 689.44 1056.36 689.44H849.927C847.162 689.44 844.921 691.681 844.921 694.446V696.787C844.921 699.551 847.162 701.793 849.927 701.793Z" fill="#263238"/>
<g opacity="0.4">
<path d="M849.927 701.793H1056.36C1059.13 701.793 1061.37 699.551 1061.37 696.787V694.446C1061.37 691.681 1059.13 689.44 1056.36 689.44H849.927C847.162 689.44 844.921 691.681 844.921 694.446V696.787C844.921 699.551 847.162 701.793 849.927 701.793Z" fill="white"/>
</g>
<path d="M1077.53 617.166C1077.53 617.166 1015.89 604.714 956.395 610.741C896.897 616.768 984.388 694.52 984.388 694.52H996.691C996.691 694.52 950.318 645.234 952.908 632.956C955.498 620.678 1072.25 636.866 1072.25 636.866L1077.53 617.166Z" fill="#263238"/>
<path opacity="0.4" d="M1077.53 617.166C1077.53 617.166 1015.89 604.714 956.395 610.741C896.897 616.768 984.388 694.52 984.388 694.52H996.691C996.691 694.52 950.318 645.234 952.908 632.956C955.498 620.678 1072.25 636.866 1072.25 636.866L1077.53 617.166Z" fill="white"/>
<path d="M317.013 630.515V633.006H279.058V631.088C279.058 626.48 283.84 622.695 289.967 622.446H291.984L304.835 621.923C311.46 621.599 317.013 625.534 317.013 630.515Z" fill="#263238"/>
<path opacity="0.2" d="M299.53 630.515V633.006H279.058V631.088C279.058 626.481 283.84 622.695 289.967 622.446H291.984C296.367 623.592 299.53 626.779 299.53 630.515Z" fill="white"/>
<path d="M626.505 890.521H630.316C630.545 890.522 630.766 890.434 630.933 890.277C631.1 890.119 631.2 889.904 631.212 889.675L637.239 655.843H619.582L625.634 889.675C625.64 889.901 625.735 890.117 625.898 890.275C626.06 890.433 626.278 890.521 626.505 890.521V890.521Z" fill="#263238"/>
<path d="M762.685 890.521H771.501L746.596 655.843H728.939L762.685 890.521Z" fill="#263238"/>
<path d="M194.208 890.521L228.028 655.843H210.396L185.491 890.521H194.208Z" fill="#263238"/>
<path d="M323.489 890.521H333.625H333.65L337.385 655.843H319.753L323.489 890.521Z" fill="#263238"/>
<g opacity="0.4">
<path d="M762.685 890.521H771.501L746.596 655.843H728.939L762.685 890.521Z" fill="white"/>
</g>
<path opacity="0.4" d="M323.489 890.521H333.625H333.65L337.385 655.843H319.753L323.489 890.521Z" fill="white"/>
<g opacity="0.2">
<path d="M626.505 890.521H630.316C630.545 890.522 630.766 890.434 630.933 890.277C631.1 890.119 631.2 889.904 631.212 889.675L637.239 655.843H619.582L625.634 889.675C625.64 889.901 625.735 890.117 625.898 890.275C626.06 890.433 626.278 890.521 626.505 890.521V890.521Z" fill="white"/>
</g>
<path opacity="0.2" d="M194.208 890.521L228.028 655.843H210.396L185.491 890.521H194.208Z" fill="white"/>
<path d="M354.221 634.326H404.454L412.449 564.194C412.372 562.925 411.814 561.734 410.888 560.863C409.962 559.993 408.738 559.509 407.468 559.511H373.871C372.6 559.509 371.376 559.993 370.451 560.863C369.525 561.734 368.966 562.925 368.89 564.194L354.221 634.326Z" fill="#263238"/>
<path d="M277.564 456.381H290.016L304.113 588.824H291.66C290.629 588.807 289.639 588.417 288.874 587.725C288.109 587.034 287.622 586.088 287.501 585.064L274.202 460.141C274.137 459.666 274.176 459.182 274.316 458.723C274.456 458.265 274.695 457.842 275.014 457.484C275.334 457.127 275.728 456.843 276.168 456.652C276.608 456.462 277.084 456.369 277.564 456.381V456.381Z" fill="#263238"/>
<path d="M296.965 588.824H484.897C485.375 588.832 485.849 588.736 486.288 588.544C486.726 588.352 487.118 588.068 487.436 587.712C487.755 587.355 487.994 586.934 488.136 586.477C488.278 586.02 488.32 585.538 488.259 585.064L474.96 460.141C474.834 459.119 474.345 458.177 473.581 457.486C472.817 456.795 471.83 456.403 470.8 456.381H282.869C282.389 456.369 281.913 456.462 281.473 456.652C281.032 456.843 280.639 457.127 280.319 457.484C279.999 457.842 279.761 458.265 279.621 458.723C279.481 459.182 279.442 459.666 279.507 460.141L292.781 585.064C292.912 586.088 293.407 587.031 294.174 587.721C294.942 588.411 295.933 588.803 296.965 588.824V588.824Z" fill="#263238"/>
<path d="M352.005 634.35H414.441C415.761 634.35 416.832 633.28 416.832 631.96V631.287C416.832 629.967 415.761 628.896 414.441 628.896H352.005C350.684 628.896 349.614 629.967 349.614 631.287V631.96C349.614 633.28 350.684 634.35 352.005 634.35Z" fill="#263238"/>
<path opacity="0.2" d="M296.965 588.824H484.897C485.375 588.832 485.849 588.736 486.288 588.544C486.726 588.352 487.118 588.068 487.436 587.712C487.755 587.355 487.994 586.934 488.136 586.477C488.278 586.02 488.32 585.538 488.259 585.064L474.96 460.141C474.834 459.119 474.345 458.177 473.581 457.486C472.817 456.795 471.83 456.403 470.8 456.381H282.869C282.389 456.369 281.913 456.462 281.473 456.652C281.032 456.843 280.639 457.127 280.319 457.484C279.999 457.842 279.761 458.265 279.621 458.723C279.481 459.182 279.442 459.666 279.507 460.141L292.781 585.064C292.912 586.088 293.407 587.031 294.174 587.721C294.942 588.411 295.933 588.803 296.965 588.824V588.824Z" fill="white"/>
<path d="M300.476 576.596H477.674C478.098 576.615 478.52 576.54 478.912 576.377C479.303 576.214 479.654 575.967 479.939 575.653C480.225 575.34 480.437 574.967 480.562 574.562C480.687 574.156 480.722 573.729 480.663 573.309L469.082 464.325C468.974 463.431 468.547 462.606 467.879 462.002C467.21 461.398 466.346 461.055 465.446 461.038H288.173C287.754 461.027 287.337 461.107 286.952 461.273C286.566 461.439 286.222 461.688 285.942 462C285.662 462.313 285.454 462.683 285.332 463.085C285.21 463.486 285.177 463.91 285.235 464.325L296.84 573.309C296.948 574.203 297.376 575.028 298.044 575.632C298.712 576.236 299.576 576.579 300.476 576.596Z" fill="#FF3333"/>
<path opacity="0.2" d="M352.005 634.35H414.441C415.761 634.35 416.832 633.28 416.832 631.96V631.287C416.832 629.967 415.761 628.896 414.441 628.896H352.005C350.684 628.896 349.614 629.967 349.614 631.287V631.96C349.614 633.28 350.684 634.35 352.005 634.35Z" fill="white"/>
<path opacity="0.2" d="M300.476 576.596H477.674C478.098 576.615 478.52 576.54 478.912 576.377C479.303 576.214 479.654 575.967 479.939 575.653C480.225 575.34 480.437 574.967 480.562 574.562C480.687 574.156 480.722 573.729 480.663 573.309L469.082 464.325C468.974 463.431 468.547 462.606 467.879 462.002C467.21 461.398 466.346 461.055 465.446 461.038H288.173C287.754 461.027 287.337 461.107 286.952 461.273C286.566 461.439 286.222 461.688 285.942 462C285.662 462.313 285.454 462.683 285.332 463.085C285.21 463.486 285.177 463.91 285.235 464.325L296.84 573.309C296.948 574.203 297.376 575.028 298.044 575.632C298.712 576.236 299.576 576.579 300.476 576.596Z" fill="black"/>
<path d="M353.175 632.757H309.542H200.185V655.843H309.542H353.175H756.807V632.757H353.175Z" fill="#FF3333"/>
<path d="M466.367 628.597H471.049C471.167 628.597 471.284 628.574 471.393 628.529C471.501 628.484 471.6 628.418 471.683 628.335C471.767 628.252 471.833 628.153 471.878 628.044C471.923 627.935 471.946 627.819 471.946 627.701V622.72C471.946 622.602 471.923 622.485 471.878 622.377C471.833 622.268 471.767 622.169 471.683 622.086C471.6 622.003 471.501 621.937 471.393 621.891C471.284 621.846 471.167 621.823 471.049 621.823H467.687C467.491 621.824 467.301 621.89 467.147 622.012C466.993 622.134 466.885 622.305 466.841 622.496L465.521 627.477C465.482 627.608 465.474 627.746 465.498 627.881C465.522 628.015 465.578 628.142 465.66 628.251C465.743 628.36 465.85 628.449 465.973 628.509C466.095 628.569 466.231 628.599 466.367 628.597Z" fill="#FF3333"/>
<path d="M459.892 628.597H464.574C464.812 628.597 465.04 628.503 465.208 628.335C465.376 628.167 465.471 627.939 465.471 627.701V622.72C465.471 622.482 465.376 622.254 465.208 622.086C465.04 621.918 464.812 621.823 464.574 621.823H461.212C461.016 621.824 460.825 621.89 460.672 622.012C460.518 622.134 460.41 622.305 460.365 622.496L459.02 627.477C458.986 627.609 458.983 627.748 459.011 627.883C459.038 628.017 459.097 628.143 459.181 628.251C459.265 628.359 459.373 628.447 459.496 628.507C459.62 628.567 459.755 628.598 459.892 628.597V628.597Z" fill="#FF3333"/>
<path d="M453.417 628.597H458.099C458.217 628.597 458.333 628.574 458.442 628.529C458.551 628.484 458.65 628.418 458.733 628.335C458.816 628.252 458.882 628.153 458.927 628.044C458.972 627.935 458.996 627.819 458.996 627.701V622.72C458.996 622.602 458.972 622.485 458.927 622.377C458.882 622.268 458.816 622.169 458.733 622.086C458.65 622.003 458.551 621.937 458.442 621.891C458.333 621.846 458.217 621.823 458.099 621.823H454.737C454.539 621.827 454.347 621.894 454.19 622.015C454.033 622.136 453.919 622.305 453.865 622.496L452.545 627.477C452.511 627.609 452.508 627.748 452.535 627.883C452.563 628.017 452.621 628.143 452.706 628.251C452.79 628.359 452.898 628.447 453.021 628.507C453.144 628.567 453.28 628.598 453.417 628.597V628.597Z" fill="#FF3333"/>
<path d="M446.942 628.597H451.624C451.862 628.597 452.09 628.503 452.258 628.335C452.426 628.167 452.52 627.939 452.52 627.701V622.72C452.52 622.482 452.426 622.254 452.258 622.086C452.09 621.918 451.862 621.823 451.624 621.823H448.287C448.088 621.827 447.896 621.894 447.739 622.015C447.582 622.136 447.468 622.305 447.415 622.496L446.095 627.477C446.061 627.607 446.057 627.744 446.084 627.877C446.11 628.009 446.166 628.134 446.248 628.242C446.329 628.349 446.434 628.437 446.554 628.499C446.674 628.56 446.807 628.594 446.942 628.597V628.597Z" fill="#FF3333"/>
<path d="M440.466 628.597H445.149C445.386 628.597 445.614 628.503 445.782 628.335C445.951 628.167 446.045 627.939 446.045 627.701V622.72C446.045 622.482 445.951 622.254 445.782 622.086C445.614 621.918 445.386 621.823 445.149 621.823H441.786C441.588 621.827 441.396 621.894 441.239 622.015C441.082 622.136 440.968 622.305 440.915 622.496L439.595 627.477C439.56 627.609 439.557 627.748 439.585 627.883C439.613 628.017 439.671 628.143 439.755 628.251C439.839 628.359 439.947 628.447 440.071 628.507C440.194 628.567 440.329 628.598 440.466 628.597V628.597Z" fill="#FF3333"/>
<path d="M433.991 628.597H438.673C438.911 628.597 439.139 628.503 439.307 628.335C439.475 628.167 439.57 627.939 439.57 627.701V622.72C439.57 622.482 439.475 622.254 439.307 622.086C439.139 621.918 438.911 621.823 438.673 621.823H435.311C435.113 621.827 434.921 621.894 434.764 622.015C434.607 622.136 434.493 622.305 434.439 622.496L433.12 627.477C433.085 627.609 433.082 627.748 433.11 627.883C433.137 628.017 433.196 628.143 433.28 628.251C433.364 628.359 433.472 628.447 433.595 628.507C433.719 628.567 433.854 628.598 433.991 628.597V628.597Z" fill="#FF3333"/>
<path d="M427.516 628.597H432.198C432.436 628.597 432.664 628.503 432.832 628.335C433 628.167 433.095 627.939 433.095 627.701V622.72C433.095 622.482 433 622.254 432.832 622.086C432.664 621.918 432.436 621.823 432.198 621.823H428.836C428.636 621.822 428.442 621.888 428.285 622.01C428.127 622.132 428.014 622.303 427.964 622.496L426.644 627.477C426.61 627.609 426.607 627.748 426.634 627.883C426.662 628.017 426.72 628.143 426.805 628.251C426.889 628.359 426.997 628.447 427.12 628.507C427.243 628.567 427.379 628.598 427.516 628.597V628.597Z" fill="#FF3333"/>
<path d="M421.041 628.597H425.723C425.84 628.597 425.957 628.574 426.066 628.529C426.175 628.484 426.273 628.418 426.357 628.335C426.44 628.252 426.506 628.153 426.551 628.044C426.596 627.935 426.619 627.819 426.619 627.701V622.72C426.619 622.602 426.596 622.485 426.551 622.377C426.506 622.268 426.44 622.169 426.357 622.086C426.273 622.003 426.175 621.937 426.066 621.892C425.957 621.846 425.84 621.823 425.723 621.823H422.361C422.161 621.822 421.967 621.888 421.809 622.01C421.652 622.132 421.539 622.303 421.489 622.496L420.169 627.477C420.135 627.609 420.131 627.748 420.159 627.883C420.187 628.017 420.245 628.143 420.329 628.251C420.414 628.359 420.521 628.447 420.645 628.507C420.768 628.567 420.904 628.598 421.041 628.597V628.597Z" fill="#FF3333"/>
<path d="M414.565 628.597H419.247C419.485 628.597 419.713 628.503 419.881 628.335C420.05 628.167 420.144 627.939 420.144 627.701V622.72C420.144 622.482 420.05 622.254 419.881 622.086C419.713 621.918 419.485 621.823 419.247 621.823H415.91C415.711 621.822 415.517 621.888 415.359 622.01C415.201 622.132 415.088 622.303 415.039 622.496L413.719 627.477C413.685 627.607 413.681 627.744 413.707 627.877C413.734 628.009 413.79 628.134 413.871 628.242C413.953 628.349 414.057 628.437 414.178 628.499C414.298 628.56 414.43 628.594 414.565 628.597V628.597Z" fill="#FF3333"/>
<path d="M408.09 628.597H412.772C413.01 628.597 413.238 628.503 413.406 628.335C413.574 628.167 413.669 627.939 413.669 627.701V622.72C413.669 622.482 413.574 622.254 413.406 622.086C413.238 621.918 413.01 621.823 412.772 621.823H409.41C409.211 621.822 409.017 621.888 408.859 622.01C408.701 622.132 408.588 622.303 408.538 622.496L407.218 627.477C407.184 627.609 407.181 627.748 407.209 627.883C407.236 628.017 407.295 628.143 407.379 628.251C407.463 628.359 407.571 628.447 407.694 628.507C407.818 628.567 407.953 628.598 408.09 628.597V628.597Z" fill="#FF3333"/>
<path d="M401.615 628.597H406.297C406.535 628.597 406.763 628.503 406.931 628.335C407.099 628.167 407.194 627.939 407.194 627.701V622.72C407.194 622.482 407.099 622.254 406.931 622.086C406.763 621.918 406.535 621.823 406.297 621.823H402.935C402.734 621.818 402.538 621.882 402.38 622.004C402.221 622.127 402.109 622.301 402.063 622.496L400.743 627.477C400.709 627.61 400.706 627.748 400.733 627.883C400.761 628.017 400.819 628.143 400.904 628.251C400.988 628.36 401.096 628.447 401.219 628.507C401.342 628.567 401.478 628.598 401.615 628.597V628.597Z" fill="#FF3333"/>
<path d="M395.14 628.597H399.822C399.939 628.597 400.056 628.574 400.165 628.529C400.274 628.484 400.372 628.418 400.456 628.335C400.539 628.252 400.605 628.153 400.65 628.044C400.695 627.935 400.718 627.819 400.718 627.701V622.72C400.718 622.602 400.695 622.486 400.65 622.377C400.605 622.268 400.539 622.169 400.456 622.086C400.372 622.003 400.274 621.937 400.165 621.892C400.056 621.846 399.939 621.823 399.822 621.823H396.46C396.259 621.818 396.063 621.882 395.904 622.004C395.745 622.127 395.634 622.301 395.588 622.496L394.268 627.477C394.234 627.61 394.23 627.748 394.258 627.883C394.286 628.017 394.344 628.143 394.428 628.251C394.513 628.36 394.62 628.447 394.744 628.507C394.867 628.567 395.003 628.598 395.14 628.597V628.597Z" fill="#FF3333"/>
<path d="M388.664 628.597H393.347C393.584 628.597 393.812 628.503 393.981 628.335C394.149 628.167 394.243 627.939 394.243 627.701V622.72C394.243 622.482 394.149 622.254 393.981 622.086C393.812 621.918 393.584 621.823 393.347 621.823H389.984C389.784 621.818 389.588 621.882 389.429 622.004C389.27 622.127 389.158 622.301 389.113 622.496L387.793 627.477C387.758 627.61 387.755 627.748 387.783 627.883C387.811 628.017 387.869 628.143 387.953 628.251C388.037 628.36 388.145 628.447 388.269 628.507C388.392 628.567 388.527 628.598 388.664 628.597V628.597Z" fill="#FF3333"/>
<path d="M382.164 628.597H386.871C387.109 628.597 387.337 628.503 387.505 628.335C387.673 628.167 387.768 627.939 387.768 627.701V622.72C387.768 622.482 387.673 622.254 387.505 622.086C387.337 621.918 387.109 621.823 386.871 621.823H383.534C383.334 621.818 383.137 621.882 382.979 622.004C382.82 622.127 382.708 622.301 382.662 622.496L381.342 627.477C381.309 627.606 381.305 627.74 381.33 627.871C381.355 628.001 381.409 628.125 381.487 628.232C381.566 628.34 381.667 628.428 381.785 628.491C381.902 628.554 382.031 628.591 382.164 628.597V628.597Z" fill="#FF3333"/>
<path d="M375.689 628.597H380.396C380.634 628.597 380.862 628.503 381.03 628.335C381.198 628.167 381.293 627.939 381.293 627.701V622.72C381.293 622.482 381.198 622.254 381.03 622.086C380.862 621.918 380.634 621.823 380.396 621.823H377.009C376.813 621.824 376.622 621.89 376.469 622.012C376.315 622.134 376.207 622.305 376.162 622.496L374.842 627.477C374.808 627.607 374.805 627.744 374.831 627.877C374.858 628.009 374.914 628.134 374.995 628.242C375.076 628.349 375.181 628.437 375.301 628.499C375.421 628.56 375.554 628.594 375.689 628.597Z" fill="#FF3333"/>
<path d="M370.982 633.031H475.781V625.235H370.982V633.031Z" fill="#263238"/>
<path opacity="0.2" d="M370.982 633.031H475.781V625.235H370.982V633.031Z" fill="white"/>
<path opacity="0.2" d="M371.007 633.031H404.952V625.235H371.007V633.031Z" fill="white"/>
<path opacity="0.2" d="M309.542 655.818H756.807V632.732H309.542V655.818Z" fill="white"/>
<path d="M219.785 853.015C220.101 852.358 220.254 851.635 220.231 850.906C220.207 850.178 220.009 849.466 219.652 848.831C219.296 848.195 218.791 847.655 218.181 847.256C217.571 846.857 216.874 846.612 216.149 846.539C216.776 844.677 216.818 842.667 216.271 840.78C215.723 838.893 214.612 837.218 213.085 835.98C212.725 835.638 212.26 835.428 211.765 835.382C211.229 835.428 210.723 835.647 210.321 836.005L201.853 842.081C201.179 842.506 200.609 843.076 200.185 843.75C198.441 847.087 204.693 851.396 202.127 854.16C201.38 854.957 200.21 855.107 199.288 855.679C197.271 856.95 197.022 859.714 196.1 861.906C195.179 864.097 191.867 865.766 190.621 863.749C191.543 861.657 188.753 859.863 186.487 859.589C184.221 859.316 181.83 859.191 180.585 857.099C177.347 859.913 170.125 852.118 170.299 848.88C169.039 849.122 167.884 849.747 166.992 850.669C166.101 851.592 165.516 852.768 165.318 854.036C164.952 856.659 164.861 859.313 165.044 861.955C165.044 867.086 163.301 872.117 163.4 877.247C163.4 881.232 165.019 885.665 168.655 887.209C170.474 887.857 172.409 888.111 174.334 887.956L215.974 887.682C216.978 887.765 217.987 887.603 218.913 887.209C220.781 886.238 221.18 883.772 221.404 881.655L223.645 854.509L219.785 853.015Z" fill="#FF3333"/>
<path opacity="0.3" d="M219.785 853.015C220.101 852.358 220.254 851.635 220.231 850.906C220.207 850.178 220.009 849.466 219.652 848.831C219.296 848.195 218.791 847.655 218.181 847.256C217.571 846.857 216.874 846.612 216.149 846.539C216.776 844.677 216.818 842.667 216.271 840.78C215.723 838.893 214.612 837.218 213.085 835.98C212.725 835.638 212.26 835.428 211.765 835.382C211.229 835.428 210.723 835.647 210.321 836.005L201.853 842.081C201.179 842.506 200.609 843.076 200.185 843.75C198.441 847.087 204.693 851.396 202.127 854.16C201.38 854.957 200.21 855.107 199.288 855.679C197.271 856.95 197.022 859.714 196.1 861.906C195.179 864.097 191.867 865.766 190.621 863.749C191.543 861.657 188.753 859.863 186.487 859.589C184.221 859.316 181.83 859.191 180.585 857.099C177.347 859.913 170.125 852.118 170.299 848.88C169.039 849.122 167.884 849.747 166.992 850.669C166.101 851.592 165.516 852.768 165.318 854.036C164.952 856.659 164.861 859.313 165.044 861.955C165.044 867.086 163.301 872.117 163.4 877.247C163.4 881.232 165.019 885.665 168.655 887.209C170.474 887.857 172.409 888.111 174.334 887.956L215.974 887.682C216.978 887.765 217.987 887.603 218.913 887.209C220.781 886.238 221.18 883.772 221.404 881.655L223.645 854.509L219.785 853.015Z" fill="white"/>
<path d="M222.201 809.008H157.598L158.121 815.533L158.494 820.19L159.49 832.319L160.063 839.292L160.81 848.582L161.109 852.541V853.737L161.483 858.419L162.006 864.819L162.305 868.779L162.653 872.839L163.027 877.496L163.326 881.033L163.624 885.017L163.774 886.761H223.197V885.017L223.521 881.057L223.819 877.496L224.193 872.814L224.517 868.779L224.841 864.819L225.364 858.394L225.737 853.737V852.541L226.036 848.582L226.808 839.292L227.356 832.344L228.327 820.19L228.726 815.533L229.249 809.008H222.201ZM226.086 813.291L224.841 812.046H226.185L226.086 813.291ZM225.762 817.251L225.637 818.82L219.86 824.623L213.235 817.974L219.162 812.046H220.557L225.762 817.251ZM224.093 837.922L219.86 842.156L213.235 835.531L219.86 828.907L224.442 833.489L224.093 837.922ZM162.628 833.489L167.211 828.907L173.835 835.531L167.211 842.156L162.977 837.922L162.628 833.489ZM217.718 826.84L211.093 833.464L204.468 826.84L211.093 820.19L217.718 826.84ZM207.308 812.121H214.779L210.993 815.906L207.308 812.121ZM208.926 835.606L202.327 842.231L195.677 835.606L202.327 828.981L208.926 835.606ZM186.911 844.273L193.535 837.673L200.16 844.273L193.535 850.923L186.911 844.273ZM191.393 853.064L184.744 859.689L178.144 853.064L184.769 846.44L191.393 853.064ZM202.327 846.44L208.926 853.064L202.327 859.689L195.677 853.064L202.327 846.44ZM193.535 833.365L186.911 826.84L193.535 820.19L200.16 826.84L193.535 833.365ZM191.393 835.507L184.769 842.131L178.144 835.507L184.769 828.882L191.393 835.507ZM175.977 833.365L169.353 826.84L175.977 820.19L182.602 826.84L175.977 833.365ZM175.977 837.673L182.602 844.273L175.977 850.923L169.353 844.273L175.977 837.673ZM182.602 861.856L175.977 868.456L169.353 861.881L175.977 855.231L182.602 861.856ZM184.744 863.973L191.393 870.622L184.769 877.247L178.144 870.622L184.744 863.973ZM186.911 861.856L193.535 855.206L200.16 861.856L193.535 868.456L186.911 861.856ZM202.327 863.973L208.926 870.622L202.327 877.247L195.677 870.622L202.327 863.973ZM211.093 872.764L217.718 879.389L213.434 883.697H208.752L204.468 879.389L211.093 872.764ZM204.468 861.856L211.093 855.206L217.718 861.856L211.093 868.456L204.468 861.856ZM204.468 844.273L211.093 837.673L217.718 844.273L211.093 850.923L204.468 844.273ZM208.926 817.949L202.327 824.598L195.677 817.949L201.729 812.046H203.124L208.926 817.949ZM193.535 815.807L189.75 812.021H197.221L193.535 815.807ZM191.393 817.949L184.769 824.598L178.144 817.949L184.071 812.021H185.466L191.393 817.949ZM179.763 812.021L175.977 815.807L172.192 812.021H179.763ZM167.908 812.021L173.835 817.949L167.211 824.598L161.433 818.795V817.226L166.638 812.021H167.908ZM162.23 812.021L160.985 813.242V812.021H162.23ZM161.806 823.478L165.069 826.84L162.305 829.604L161.806 823.478ZM163.624 845.717L163.375 842.58L165.069 844.273L163.624 845.717V845.717ZM163.948 849.702L167.211 846.44L173.835 853.064L167.211 859.689L164.521 857.024L163.948 849.702ZM164.92 861.98V861.706L165.069 861.881L164.92 862.005V861.98ZM166.09 876.101L165.243 865.94L167.211 863.973L173.835 870.622L167.211 877.247L166.09 876.101V876.101ZM166.688 883.573L166.563 882.054L167.211 881.406L169.353 883.573H166.688ZM169.353 879.414L175.977 872.789L182.602 879.414L178.318 883.722H173.636L169.353 879.414ZM182.602 883.722L184.769 881.556L186.935 883.722H182.602ZM191.194 883.722L186.911 879.414L193.535 872.789L200.16 879.414L195.876 883.722H191.194ZM200.16 883.722L202.327 881.556L204.468 883.722H200.16ZM220.383 883.722H217.718L219.86 881.556L220.507 882.203L220.383 883.722ZM221.005 876.251L219.86 877.396L213.235 870.772L219.86 864.122L221.827 866.09L221.005 876.251ZM222.176 861.831V862.13L222.026 862.005L222.201 861.831H222.176ZM222.549 857.174L219.86 859.839L213.235 853.214L219.86 846.589L223.147 849.852L222.549 857.174ZM223.471 845.892L222.001 844.422L223.72 842.729L223.471 845.892ZM225.264 823.627L224.791 829.654L222.001 826.84L225.264 823.577V823.627Z" fill="#FF3333"/>
<g opacity="0.6">
<path d="M222.201 809.008H157.598L158.121 815.533L158.494 820.19L159.49 832.319L160.063 839.292L160.81 848.582L161.109 852.541V853.737L161.483 858.419L162.006 864.819L162.305 868.779L162.653 872.839L163.027 877.496L163.326 881.033L163.624 885.017L163.774 886.761H223.197V885.017L223.521 881.057L223.819 877.496L224.193 872.814L224.517 868.779L224.841 864.819L225.364 858.394L225.737 853.737V852.541L226.036 848.582L226.808 839.292L227.356 832.344L228.327 820.19L228.726 815.533L229.249 809.008H222.201ZM226.086 813.291L224.841 812.046H226.185L226.086 813.291ZM225.762 817.251L225.637 818.82L219.86 824.623L213.235 817.974L219.162 812.046H220.557L225.762 817.251ZM224.093 837.922L219.86 842.156L213.235 835.531L219.86 828.907L224.442 833.489L224.093 837.922ZM162.628 833.489L167.211 828.907L173.835 835.531L167.211 842.156L162.977 837.922L162.628 833.489ZM217.718 826.84L211.093 833.464L204.468 826.84L211.093 820.19L217.718 826.84ZM207.308 812.121H214.779L210.993 815.906L207.308 812.121ZM208.926 835.606L202.327 842.231L195.677 835.606L202.327 828.981L208.926 835.606ZM186.911 844.273L193.535 837.673L200.16 844.273L193.535 850.923L186.911 844.273ZM191.393 853.064L184.744 859.689L178.144 853.064L184.769 846.44L191.393 853.064ZM202.327 846.44L208.926 853.064L202.327 859.689L195.677 853.064L202.327 846.44ZM193.535 833.365L186.911 826.84L193.535 820.19L200.16 826.84L193.535 833.365ZM191.393 835.507L184.769 842.131L178.144 835.507L184.769 828.882L191.393 835.507ZM175.977 833.365L169.353 826.84L175.977 820.19L182.602 826.84L175.977 833.365ZM175.977 837.673L182.602 844.273L175.977 850.923L169.353 844.273L175.977 837.673ZM182.602 861.856L175.977 868.456L169.353 861.881L175.977 855.231L182.602 861.856ZM184.744 863.973L191.393 870.622L184.769 877.247L178.144 870.622L184.744 863.973ZM186.911 861.856L193.535 855.206L200.16 861.856L193.535 868.456L186.911 861.856ZM202.327 863.973L208.926 870.622L202.327 877.247L195.677 870.622L202.327 863.973ZM211.093 872.764L217.718 879.389L213.434 883.697H208.752L204.468 879.389L211.093 872.764ZM204.468 861.856L211.093 855.206L217.718 861.856L211.093 868.456L204.468 861.856ZM204.468 844.273L211.093 837.673L217.718 844.273L211.093 850.923L204.468 844.273ZM208.926 817.949L202.327 824.598L195.677 817.949L201.729 812.046H203.124L208.926 817.949ZM193.535 815.807L189.75 812.021H197.221L193.535 815.807ZM191.393 817.949L184.769 824.598L178.144 817.949L184.071 812.021H185.466L191.393 817.949ZM179.763 812.021L175.977 815.807L172.192 812.021H179.763ZM167.908 812.021L173.835 817.949L167.211 824.598L161.433 818.795V817.226L166.638 812.021H167.908ZM162.23 812.021L160.985 813.242V812.021H162.23ZM161.806 823.478L165.069 826.84L162.305 829.604L161.806 823.478ZM163.624 845.717L163.375 842.58L165.069 844.273L163.624 845.717V845.717ZM163.948 849.702L167.211 846.44L173.835 853.064L167.211 859.689L164.521 857.024L163.948 849.702ZM164.92 861.98V861.706L165.069 861.881L164.92 862.005V861.98ZM166.09 876.101L165.243 865.94L167.211 863.973L173.835 870.622L167.211 877.247L166.09 876.101V876.101ZM166.688 883.573L166.563 882.054L167.211 881.406L169.353 883.573H166.688ZM169.353 879.414L175.977 872.789L182.602 879.414L178.318 883.722H173.636L169.353 879.414ZM182.602 883.722L184.769 881.556L186.935 883.722H182.602ZM191.194 883.722L186.911 879.414L193.535 872.789L200.16 879.414L195.876 883.722H191.194ZM200.16 883.722L202.327 881.556L204.468 883.722H200.16ZM220.383 883.722H217.718L219.86 881.556L220.507 882.203L220.383 883.722ZM221.005 876.251L219.86 877.396L213.235 870.772L219.86 864.122L221.827 866.09L221.005 876.251ZM222.176 861.831V862.13L222.026 862.005L222.201 861.831H222.176ZM222.549 857.174L219.86 859.839L213.235 853.214L219.86 846.589L223.147 849.852L222.549 857.174ZM223.471 845.892L222.001 844.422L223.72 842.729L223.471 845.892ZM225.264 823.627L224.791 829.654L222.001 826.84L225.264 823.577V823.627Z" fill="white"/>
</g>
<path d="M157.548 814.761H229.523C231.778 814.761 233.607 812.932 233.607 810.676V810.402C233.607 808.147 231.778 806.318 229.523 806.318H157.548C155.292 806.318 153.463 808.147 153.463 810.402V810.676C153.463 812.932 155.292 814.761 157.548 814.761Z" fill="#FF3333"/>
<path d="M223.745 882.203H163.326C161.07 882.203 159.241 884.032 159.241 886.287V886.561C159.241 888.817 161.07 890.646 163.326 890.646H223.745C226.001 890.646 227.829 888.817 227.829 886.561V886.287C227.829 884.032 226.001 882.203 223.745 882.203Z" fill="#FF3333"/>
<path d="M601.528 198.859L675.001 186.142C680.002 185.276 683.354 180.52 682.488 175.519L669.771 102.047C668.905 97.0456 664.15 93.6932 659.149 94.5588L585.676 107.276C580.675 108.142 577.323 112.898 578.188 117.899L590.905 191.371C591.771 196.372 596.527 199.725 601.528 198.859Z" fill="#FF3333"/>
<path d="M627.228 187.135C627.228 187.135 643.989 212.513 672.38 216.448C672.38 216.448 656.018 210.446 652.207 181.581L627.228 187.135Z" fill="#FF3333"/>
<path d="M651.485 139.716L639.63 141.136C639.63 141.136 635.745 133.216 633.279 114.886C631.219 114.913 629.174 115.232 627.203 115.832C625.285 116.679 627.402 137.201 627.402 137.201C627.402 137.201 605.934 138.695 604.988 139.691C604.34 140.363 604.589 143.526 604.988 145.768C605.039 146.411 605.318 147.015 605.774 147.472C606.231 147.928 606.835 148.207 607.478 148.258H608.25L612.061 168.431C612.184 169.194 612.597 169.879 613.215 170.344C613.833 170.808 614.606 171.015 615.373 170.922L635.297 168.431C637.275 168.152 639.123 167.284 640.602 165.941L642.544 164.172L654.996 163.376L651.485 139.716Z" fill="#FF3333"/>
<path opacity="0.7" d="M651.485 139.716L639.63 141.136C639.63 141.136 635.745 133.216 633.279 114.886C631.219 114.913 629.174 115.232 627.203 115.832C625.285 116.679 627.402 137.201 627.402 137.201C627.402 137.201 605.934 138.695 604.988 139.691C604.34 140.363 604.589 143.526 604.988 145.768C605.039 146.411 605.318 147.015 605.774 147.472C606.231 147.928 606.835 148.207 607.478 148.258H608.25L612.061 168.431C612.184 169.194 612.597 169.879 613.215 170.344C613.833 170.808 614.606 171.015 615.373 170.922L635.297 168.431C637.275 168.152 639.123 167.284 640.602 165.941L642.544 164.172L654.996 163.376L651.485 139.716Z" fill="white"/>
<path d="M693.699 285.683C682.84 285.26 640.552 354.146 640.552 354.146L611.812 348.667L605.635 363.361C605.635 363.361 631.561 376.013 641.971 377.134C652.381 378.254 692.354 322.692 692.354 322.692L693.699 285.683Z" fill="#FF3333"/>
<path opacity="0.2" d="M693.699 285.658L692.354 322.692C692.354 322.692 691.382 324.036 689.714 326.278C686.675 330.437 681.221 337.734 675.02 345.529C662.891 360.721 647.874 377.906 642.071 377.158C631.636 376.038 605.735 363.436 605.735 363.436L611.911 348.742L640.626 354.171C640.626 354.171 682.84 285.26 693.699 285.658Z" fill="white"/>
<path opacity="0.2" d="M689.614 326.253C686.576 330.412 681.122 337.709 674.92 345.504C675.144 330.811 687.995 312.53 687.995 312.53C687.995 312.53 688.917 318.533 689.614 326.253Z" fill="black"/>
<path d="M776.183 888.554H800.465C800.864 888.555 801.251 888.691 801.563 888.939C801.875 889.188 802.094 889.535 802.184 889.924L806.119 907.731C806.282 908.497 806.135 909.296 805.71 909.954C805.285 910.612 804.618 911.075 803.852 911.242H803.205C795.335 911.118 789.607 910.644 779.745 910.644C773.668 910.644 755.313 911.267 746.92 911.267C738.527 911.267 737.431 902.974 740.868 902.202C756.284 898.864 767.89 894.207 772.821 889.749C773.747 888.934 774.951 888.506 776.183 888.554V888.554Z" fill="#263238"/>
<path d="M673.127 887.906H697.335C697.731 887.908 698.114 888.045 698.422 888.294C698.73 888.543 698.943 888.889 699.028 889.276L702.988 907.108C703.143 907.874 702.989 908.67 702.56 909.323C702.131 909.976 701.461 910.433 700.697 910.595C700.482 910.621 700.264 910.621 700.049 910.595C692.204 910.445 686.476 909.972 676.589 909.972C670.512 909.972 652.182 910.62 643.789 910.62C635.396 910.62 634.301 902.326 637.738 901.554C653.154 898.192 664.734 893.535 669.69 889.102C670.644 888.284 671.872 887.857 673.127 887.906Z" fill="#263238"/>
<path d="M789.059 438.175H682.915C672.803 493.29 641.224 717.109 663.888 890.87H699.825C699.825 890.87 696.488 626.879 728.217 541.655C731.878 587.305 768.986 890.671 768.986 890.671H805.571C805.571 890.671 800.092 776.557 794.613 668.744C791.176 600.878 789.209 452.097 789.059 438.175Z" fill="#263238"/>
<path opacity="0.2" d="M728.217 541.655C722.997 556.607 719.032 571.968 716.362 587.579C713.398 546.959 725.278 503.899 725.278 503.899L728.217 541.655Z" fill="black"/>
<path d="M682.018 439.445H788.86V452.172L680.648 450.852L682.018 439.445Z" fill="black"/>
<path d="M754.516 433.717H750.706V456.306H754.516V433.717Z" fill="#263238"/>
<path d="M700.448 433.717H696.637V456.306H700.448V433.717Z" fill="#263238"/>
<path d="M730.732 437.204H710.958V451.449H730.732V437.204Z" fill="white"/>
<path d="M789.209 441.488C792.023 380.695 809.904 294.549 809.904 294.549C760.294 282.595 693.699 285.583 693.699 285.583C680.723 332.006 680.947 406.92 682.068 441.388L789.209 441.488Z" fill="#FF3333"/>
<path opacity="0.2" d="M809.904 294.624C809.904 294.624 807.912 304.262 805.148 319.329C803.828 326.527 802.308 334.97 800.789 344.234C799.893 349.639 798.971 355.292 798.099 361.12C797.228 366.947 796.331 372.651 795.609 378.553C792.67 399.672 790.205 421.912 789.283 441.512H682.193C681.072 407.044 680.848 332.131 693.823 285.683C693.699 285.658 760.319 282.67 809.904 294.624Z" fill="white"/>
<path opacity="0.2" d="M805.148 319.329C803.828 326.527 802.308 334.97 800.789 344.234C799.893 349.639 798.971 355.292 798.099 361.12C790.23 340.474 803.628 312.58 803.628 312.58L805.148 319.329Z" fill="black"/>
<path d="M728.964 293.877L731.629 307.027C731.629 307.027 716.312 370.957 713.025 404.155L718.603 409.734L727.395 404.155C727.395 404.155 728.167 336.638 735.937 308.272L749.834 296.89L738.876 293.329L728.964 293.877Z" fill="#263238"/>
<path d="M770.555 287.924C761.39 296.268 738.876 293.179 738.876 293.179C738.876 293.179 724.854 289.344 727.793 284.961C736.062 283.591 740.071 279.731 741.715 274.8C742.631 271.743 742.919 268.532 742.562 265.361C742.429 263.589 742.196 261.826 741.864 260.081L769.683 239.485C766.022 253.083 761.564 278.087 770.555 287.924Z" fill="#EEC1BB"/>
<path opacity="0.2" d="M763.258 252.585C762.137 269.271 748.315 273.853 741.715 274.8C742.631 271.743 742.919 268.532 742.562 265.361L763.258 252.585Z" fill="black"/>
<path d="M766.471 277.34L739.872 289.344L738.328 279.731L728.54 283.168C726.84 283.764 725.39 284.917 724.427 286.441C723.464 287.964 723.044 289.769 723.236 291.561L724.332 302.12L737.805 294.649L744.529 304.138L776.457 288.896L766.471 277.34Z" fill="#FF3333"/>
<path opacity="0.3" d="M766.471 277.34L739.872 289.344L738.328 279.731L728.54 283.168C726.84 283.764 725.39 284.917 724.427 286.441C723.464 287.964 723.044 289.769 723.236 291.561L724.332 302.12L737.805 294.649L744.529 304.138L776.457 288.896L766.471 277.34Z" fill="white"/>
<path d="M712.676 200.857C712.676 200.857 708.517 227.63 722.638 237.99C736.759 248.351 736.983 198.466 736.983 198.466L712.676 200.857Z" fill="#263238"/>
<path d="M763.905 259.384C760.918 263.791 756.564 267.094 751.514 268.782C746.464 270.469 740.999 270.449 735.962 268.723C729.401 266.634 723.886 262.117 720.546 256.096C720.081 255.288 719.657 254.457 719.276 253.606C712.327 237.218 710.186 208.578 727.519 197.894C733.442 194.196 740.59 193.001 747.394 194.57C754.198 196.139 760.1 200.344 763.806 206.262C766.016 209.763 767.357 213.742 767.716 217.867C769.783 236.944 771.9 248.102 763.905 259.384Z" fill="#EEC1BB"/>
<path d="M739.797 227.929C740.146 229.448 739.449 230.868 738.428 231.042C737.406 231.216 736.385 230.071 736.111 228.551C735.837 227.032 736.485 225.638 737.481 225.463C738.477 225.289 739.523 226.385 739.797 227.929Z" fill="#263238"/>
<path d="M722.239 230.868C722.588 232.387 721.866 233.806 720.87 233.956C719.874 234.105 718.827 233.009 718.578 231.465C718.329 229.921 718.927 228.527 719.923 228.377C720.919 228.228 722.065 229.398 722.239 230.868Z" fill="#263238"/>
<path d="M727.992 230.693C726.945 235.733 725.202 240.603 722.812 245.163C724.004 245.741 725.307 246.053 726.631 246.079C727.955 246.105 729.269 245.843 730.483 245.312L727.992 230.693Z" fill="#D4827D"/>
<path d="M714.569 224.492C714.728 224.545 714.899 224.557 715.064 224.527C715.23 224.496 715.385 224.424 715.515 224.318C716.364 223.532 717.385 222.954 718.495 222.63C719.606 222.306 720.777 222.244 721.916 222.45C722.03 222.484 722.15 222.495 722.269 222.482C722.388 222.469 722.503 222.432 722.607 222.374C722.711 222.316 722.803 222.238 722.877 222.144C722.951 222.05 723.005 221.942 723.036 221.827C723.098 221.589 723.065 221.337 722.944 221.123C722.824 220.91 722.624 220.751 722.389 220.681V220.681C720.963 220.383 719.486 220.431 718.082 220.821C716.678 221.211 715.388 221.932 714.32 222.923C714.132 223.078 714.013 223.302 713.99 223.545C713.966 223.787 714.04 224.03 714.195 224.218V224.218C714.301 224.332 714.428 224.425 714.569 224.492Z" fill="#263238"/>
<path d="M742.163 220.358C742.335 220.332 742.493 220.251 742.614 220.128C742.735 220.004 742.813 219.845 742.835 219.673C742.858 219.502 742.824 219.327 742.739 219.177C742.653 219.026 742.521 218.907 742.363 218.839V218.839C741.129 218.052 739.724 217.576 738.267 217.45C736.81 217.324 735.344 217.553 733.995 218.116C733.885 218.167 733.787 218.239 733.706 218.328C733.625 218.418 733.563 218.523 733.523 218.636C733.484 218.75 733.468 218.871 733.476 218.991C733.484 219.112 733.517 219.229 733.571 219.337V219.337C733.678 219.553 733.867 219.719 734.095 219.798C734.323 219.877 734.573 219.864 734.792 219.76V219.76C735.873 219.352 737.033 219.201 738.183 219.317C739.332 219.434 740.439 219.816 741.416 220.432C741.538 220.478 741.669 220.495 741.799 220.482C741.928 220.469 742.053 220.427 742.163 220.358V220.358Z" fill="#263238"/>
<path d="M749.809 196.449V204.991C751.299 205.505 752.545 206.554 753.304 207.935C754.064 209.316 754.282 210.93 753.918 212.463C752.026 219.934 757.355 230.369 763.332 234.105C763.332 234.105 763.133 231.017 765.823 231.44C768.513 231.864 769.708 247.927 765.549 256.171C765.549 256.171 772.373 248.351 774.689 231.067C776.831 215.053 775.785 202.053 771.9 196.424L749.809 196.449Z" fill="#263238"/>
<path d="M778.624 231.963C777.237 236.613 774.068 240.525 769.808 242.847C764.129 245.86 759.846 241.128 760.319 235.052C760.717 229.647 764.104 221.404 770.281 220.955C776.457 220.507 780.243 226.235 778.624 231.963Z" fill="#EEC1BB"/>
<path d="M732.5 249.995C733.835 252.042 735.026 254.181 736.062 256.395L737.307 256.021C742.91 254.378 744.953 251.763 745.55 249.372C745.83 248.201 745.83 246.981 745.55 245.81C745.397 245.15 745.154 244.513 744.828 243.918C741.818 246.467 738.292 248.336 734.493 249.397C733.247 249.795 732.5 249.995 732.5 249.995Z" fill="#263238"/>
<path d="M734.393 249.397L735.489 251.265C740.769 249.696 744.28 247.902 745.451 245.81C745.297 245.15 745.054 244.513 744.729 243.918C741.718 246.467 738.193 248.336 734.393 249.397V249.397Z" fill="white"/>
<path d="M737.307 256.021C742.91 254.378 744.953 251.763 745.55 249.372C743.429 250.046 741.44 251.082 739.673 252.435C738.531 253.356 737.705 254.61 737.307 256.021V256.021Z" fill="#DE5753"/>
<path d="M770.555 200.484C770.555 200.484 779.745 189.277 757.704 182.403C735.663 175.529 703.412 196.001 709.961 204.095C716.511 212.189 739.1 208.802 739.1 208.802C735.944 208.421 732.958 207.162 730.483 205.166C730.483 205.166 763.158 207.357 770.555 200.484Z" fill="#263238"/>
<path d="M809.904 294.649C823.876 299.381 833.439 386.249 833.265 393.795C833.091 401.341 811.698 404.604 809.904 388.814C808.111 373.024 800.789 339.453 800.789 339.453C800.789 339.453 798.847 324.261 800.789 315.046C802.732 305.831 809.904 294.649 809.904 294.649Z" fill="#FF3333"/>
<path opacity="0.2" d="M809.904 294.649C823.876 299.381 833.439 386.249 833.265 393.795C833.091 401.341 811.698 404.604 809.904 388.814C808.111 373.024 800.789 339.453 800.789 339.453C800.789 339.453 798.847 324.261 800.789 315.046C802.732 305.831 809.904 294.649 809.904 294.649Z" fill="white"/>
<path d="M919.738 391.598L432.212 338.808L395.49 677.947L883.016 730.737L919.738 391.598Z" fill="#FF3333"/>
<path opacity="0.6" d="M919.738 391.598L432.212 338.808L395.49 677.947L883.016 730.737L919.738 391.598Z" fill="white"/>
<path d="M873.038 719.176L407.841 668.844L442.309 350.236L907.506 400.569L873.038 719.176ZM410.606 666.627L870.822 716.437L904.767 402.785L444.526 352.976L410.606 666.627Z" fill="#FF3333"/>
<path d="M878.243 725.353L851.122 722.414L852.168 712.825L429.608 667.1L428.562 676.689L401.441 673.775L404.379 646.653L414.217 647.724L444.103 372.252L434.141 371.181L437.079 344.06L464.201 346.999L463.18 356.587L885.74 402.312L886.761 392.724L914.007 395.638L911.068 422.759L901.23 421.713L871.345 697.16L881.307 698.231L878.243 725.353ZM853.861 720.222L876.027 722.713L878.517 700.547L868.555 699.476L898.889 419.048L908.851 420.119L911.342 397.954L889.176 395.463L888.13 405.052L460.44 358.804L461.486 349.19L439.321 346.7L436.83 368.865L446.668 369.936L416.334 650.364L406.372 649.293L403.881 671.459L426.047 673.949L427.093 664.361L854.609 710.609L853.861 720.222Z" fill="#FF3333"/>
<path d="M449.059 358.953L454.712 359.576L454.089 365.229L448.436 364.631L449.059 358.953ZM446.842 356.214L446.568 358.704L445.97 364.382L445.697 366.873L448.187 367.147L453.865 367.769L456.356 368.018L456.63 365.528L457.227 359.875L457.501 357.384L455.011 357.11L449.333 356.512L446.842 356.238V356.214Z" fill="#FF3333"/>
<path d="M416.907 656.117L422.56 656.715L421.937 662.368L416.284 661.771L416.907 656.117ZM414.69 653.353L414.416 655.843L413.818 661.497L413.544 663.987L416.035 664.236L421.713 664.859L424.204 665.133L424.478 662.642L425.075 656.989L425.349 654.498L422.859 654.249L417.181 653.627L414.69 653.353Z" fill="#FF3333"/>
<path d="M893.41 407.044L899.064 407.642L898.466 413.32L892.788 412.698L893.41 407.044ZM891.194 404.28L890.92 406.77L890.322 412.424L890.048 414.914L892.539 415.163L898.217 415.786L900.707 416.06L900.981 413.569L901.604 407.916L901.853 405.425L899.362 405.151L893.709 404.529L891.219 404.255L891.194 404.28Z" fill="#FF3333"/>
<path d="M861.258 704.183L866.912 704.806L866.314 710.459L860.636 709.837L861.258 704.183ZM859.042 701.444L858.768 703.934L858.17 709.613L857.896 712.103L860.386 712.377L866.04 712.975L868.53 713.249L868.804 710.758L869.427 705.08L869.676 702.59L867.186 702.316L861.532 701.718L859.042 701.444Z" fill="#FF3333"/>
<path d="M540.185 411.502C540.561 409.093 541.636 406.846 543.277 405.042C544.917 403.238 547.052 401.955 549.415 401.353C551.778 400.751 554.266 400.856 556.57 401.655C558.874 402.454 560.893 403.913 562.375 405.849L559.337 408.14C558.662 407.198 557.793 406.412 556.787 405.836C555.781 405.26 554.663 404.908 553.509 404.803C552.438 404.659 551.35 404.73 550.307 405.014C549.264 405.297 548.288 405.786 547.438 406.453C546.587 407.119 545.878 407.949 545.354 408.893C544.829 409.838 544.499 410.878 544.382 411.952C544.266 413.027 544.366 414.113 544.676 415.149C544.986 416.184 545.501 417.146 546.189 417.979C546.877 418.812 547.725 419.499 548.683 419.999C549.641 420.499 550.689 420.803 551.766 420.891C552.921 421.033 554.093 420.923 555.202 420.571C556.31 420.219 557.33 419.631 558.192 418.849L560.682 421.763C558.82 423.338 556.537 424.332 554.115 424.62C551.693 424.909 549.24 424.481 547.06 423.388C544.88 422.295 543.069 420.586 541.851 418.473C540.633 416.361 540.063 413.936 540.21 411.502H540.185Z" fill="#FF3333"/>
<path d="M581.926 423.979L581.527 427.566L564.368 425.698L566.858 402.785L583.57 404.604L583.196 408.165L570.744 406.82L570.096 412.772L581.179 413.968L580.78 417.479L569.722 416.284L569.05 422.585L581.926 423.979Z" fill="#FF3333"/>
<path d="M601.252 429.683L597.317 422.485H596.42L591.24 421.937L590.518 428.612L586.284 428.139L588.775 405.251L598.189 406.272C604.216 406.92 607.628 410.381 607.08 415.462C606.962 417.035 606.349 418.531 605.329 419.734C604.309 420.938 602.934 421.787 601.401 422.161L605.859 430.255L601.252 429.683ZM597.591 409.759L592.61 409.236L591.639 418.351L596.62 418.899C600.355 419.297 602.472 417.803 602.771 414.914C603.07 412.025 601.327 410.157 597.715 409.759H597.591Z" fill="#FF3333"/>
<path d="M616.593 411.826L608.997 411.004L609.396 407.393L628.822 409.51L628.448 413.096L620.852 412.274L618.76 431.575L614.501 431.127L616.593 411.826Z" fill="#FF3333"/>
<path d="M632.034 409.858L636.293 410.307L633.803 433.219L629.544 432.746L632.034 409.858Z" fill="#FF3333"/>
<path d="M646.33 415.014L645.582 421.962L656.64 423.158L656.242 426.769L645.184 425.573L644.238 434.34L639.979 433.892L642.469 410.979L659.18 412.797L658.807 416.359L646.33 415.014Z" fill="#FF3333"/>
<path d="M663.315 413.221L667.549 413.694L665.058 436.606L660.799 436.133L663.315 413.221Z" fill="#FF3333"/>
<path d="M670.861 425.648C671.017 424.053 671.499 422.506 672.275 421.103C673.052 419.701 674.107 418.472 675.376 417.492C676.645 416.512 678.101 415.803 679.654 415.406C681.208 415.01 682.826 414.936 684.409 415.188C686.115 415.303 687.774 415.794 689.268 416.625C690.762 417.456 692.053 418.606 693.051 419.995L690.038 422.286C689.363 421.342 688.494 420.553 687.488 419.973C686.483 419.393 685.365 419.035 684.21 418.924C682.868 418.793 681.515 418.999 680.273 419.524C679.032 420.049 677.941 420.875 677.1 421.928C676.258 422.982 675.693 424.228 675.456 425.555C675.219 426.882 675.317 428.247 675.741 429.527C676.165 430.806 676.902 431.96 677.885 432.882C678.868 433.804 680.066 434.467 681.37 434.809C682.674 435.151 684.043 435.162 685.352 434.841C686.661 434.52 687.869 433.877 688.867 432.97L691.358 435.884C689.497 437.457 687.216 438.45 684.797 438.74C682.378 439.029 679.927 438.603 677.748 437.513C675.569 436.424 673.757 434.719 672.537 432.61C671.318 430.501 670.743 428.08 670.886 425.648H670.861Z" fill="#FF3333"/>
<path d="M709.986 436.083L698.53 434.863L695.691 439.844L691.308 439.371L704.109 417.579L708.293 418.027L716.138 442.035L711.705 441.562L709.986 436.083ZM708.94 432.597L705.703 422.112L700.323 431.675L708.94 432.597Z" fill="#FF3333"/>
<path d="M724.73 423.506L717.134 422.684L717.508 419.098L736.958 421.19L736.56 424.801L728.964 423.98L726.897 443.281L722.638 442.808L724.73 423.506Z" fill="#FF3333"/>
<path d="M740.071 421.539L744.33 422.012L741.84 444.899L737.581 444.451L740.071 421.539Z" fill="#FF3333"/>
<path d="M747.643 433.941C747.792 431.456 748.683 429.073 750.201 427.1C751.718 425.126 753.792 423.653 756.155 422.869C758.518 422.086 761.062 422.029 763.458 422.706C765.854 423.383 767.991 424.763 769.596 426.666C771.2 428.57 772.196 430.911 772.457 433.387C772.717 435.863 772.229 438.36 771.056 440.556C769.884 442.752 768.079 444.546 765.877 445.706C763.674 446.867 761.175 447.341 758.7 447.066C757.095 446.978 755.525 446.563 754.086 445.845C752.647 445.128 751.37 444.123 750.335 442.894C749.299 441.664 748.525 440.236 748.062 438.696C747.599 437.156 747.457 435.538 747.643 433.941V433.941ZM768.015 436.158C768.193 434.566 767.894 432.957 767.157 431.534C766.42 430.112 765.277 428.94 763.874 428.168C762.47 427.395 760.869 427.057 759.273 427.195C757.677 427.333 756.158 427.941 754.908 428.943C753.658 429.945 752.733 431.296 752.252 432.824C751.77 434.352 751.752 435.988 752.201 437.526C752.649 439.064 753.544 440.434 754.772 441.463C756 442.492 757.506 443.133 759.099 443.306C760.158 443.451 761.236 443.38 762.267 443.095C763.298 442.81 764.26 442.318 765.094 441.649C765.928 440.981 766.618 440.149 767.12 439.204C767.622 438.26 767.926 437.224 768.015 436.158V436.158Z" fill="#FF3333"/>
<path d="M798.423 427.84L795.933 450.752L792.446 450.379L781.488 433.493L779.795 449.009L775.586 448.56L778.076 425.648L781.588 426.022L792.546 442.907L794.214 427.391L798.423 427.84Z" fill="#FF3333"/>
<path opacity="0.6" d="M774.963 516.227L547.059 491.571C544.503 491.294 541.941 492.043 539.937 493.654C537.934 495.266 536.652 497.607 536.375 500.163C536.097 502.72 536.847 505.281 538.458 507.285C540.07 509.289 542.411 510.57 544.967 510.847L772.871 535.503C774.137 535.641 775.417 535.527 776.639 535.17C777.861 534.812 779 534.218 779.993 533.42C780.985 532.622 781.81 531.637 782.421 530.52C783.032 529.403 783.418 528.177 783.555 526.911C783.692 525.645 783.579 524.365 783.222 523.143C782.864 521.921 782.27 520.782 781.472 519.789C780.674 518.797 779.688 517.972 778.572 517.361C777.455 516.75 776.229 516.364 774.963 516.227V516.227Z" fill="white"/>
<path d="M830.376 566.261H830.227L482.356 528.629C482.026 528.593 481.724 528.427 481.516 528.168C481.308 527.909 481.212 527.577 481.248 527.247C481.284 526.917 481.45 526.615 481.71 526.407C481.969 526.199 482.3 526.103 482.63 526.139L830.501 563.795C830.664 563.81 830.822 563.858 830.966 563.936C831.11 564.014 831.237 564.12 831.339 564.248C831.441 564.375 831.517 564.522 831.561 564.68C831.605 564.838 831.617 565.002 831.597 565.165C831.56 565.464 831.417 565.74 831.192 565.942C830.968 566.144 830.678 566.257 830.376 566.261Z" fill="#FF3333"/>
<path d="M831.497 555.826H831.347L510.748 521.133C510.421 521.096 510.123 520.93 509.918 520.674C509.713 520.417 509.617 520.09 509.652 519.763C509.667 519.6 509.715 519.442 509.793 519.298C509.871 519.154 509.977 519.027 510.105 518.925C510.232 518.823 510.379 518.747 510.537 518.703C510.695 518.659 510.859 518.647 511.022 518.668L831.621 553.335C831.952 553.352 832.262 553.499 832.484 553.744C832.706 553.989 832.821 554.312 832.804 554.643C832.788 554.973 832.641 555.283 832.396 555.505C832.15 555.727 831.827 555.842 831.497 555.826V555.826Z" fill="#FF3333"/>
<path d="M692.877 562.425L481.186 539.538C480.856 539.501 480.553 539.335 480.345 539.076C480.138 538.817 480.041 538.486 480.078 538.156C480.114 537.825 480.28 537.523 480.539 537.315C480.798 537.107 481.13 537.011 481.46 537.047L693.001 559.935C693.165 559.943 693.325 559.983 693.473 560.053C693.621 560.124 693.754 560.222 693.864 560.344C693.973 560.465 694.058 560.607 694.113 560.761C694.168 560.915 694.192 561.079 694.184 561.242C694.176 561.406 694.136 561.566 694.066 561.714C693.996 561.862 693.897 561.995 693.775 562.105C693.654 562.214 693.512 562.299 693.358 562.354C693.204 562.409 693.04 562.433 692.877 562.425V562.425Z" fill="#FF3333"/>
<path d="M839.467 482.232H839.292L518.717 447.539C518.387 447.503 518.085 447.337 517.877 447.078C517.669 446.819 517.573 446.487 517.609 446.157C517.646 445.827 517.812 445.525 518.071 445.317C518.33 445.109 518.661 445.013 518.991 445.049L839.591 479.741C839.917 479.779 840.216 479.944 840.421 480.2C840.626 480.457 840.722 480.784 840.687 481.111C840.662 481.417 840.522 481.703 840.296 481.91C840.07 482.118 839.774 482.233 839.467 482.232V482.232Z" fill="#FF3333"/>
<path d="M838.321 492.667H838.196L490.326 455.011C489.996 454.974 489.693 454.808 489.485 454.549C489.278 454.29 489.181 453.959 489.218 453.629C489.254 453.298 489.42 452.996 489.679 452.788C489.938 452.58 490.27 452.484 490.6 452.52L838.47 490.152C838.634 490.161 838.794 490.203 838.941 490.275C839.088 490.347 839.22 490.446 839.329 490.569C839.438 490.692 839.521 490.834 839.575 490.989C839.628 491.144 839.651 491.308 839.641 491.471C839.631 491.635 839.589 491.795 839.517 491.942C839.446 492.09 839.346 492.221 839.223 492.33C839.101 492.439 838.958 492.522 838.803 492.576C838.648 492.629 838.484 492.652 838.321 492.642V492.667Z" fill="#FF3333"/>
<path d="M645.035 493.813L487.985 476.827C487.655 476.791 487.352 476.625 487.144 476.366C486.937 476.107 486.84 475.775 486.877 475.445C486.913 475.115 487.079 474.813 487.338 474.605C487.597 474.397 487.929 474.301 488.259 474.337L645.308 491.347C645.635 491.384 645.933 491.55 646.139 491.806C646.344 492.063 646.439 492.39 646.404 492.717C646.361 493.04 646.194 493.335 645.939 493.539C645.684 493.743 645.36 493.841 645.035 493.813V493.813Z" fill="#FF3333"/>
<path d="M837.15 503.575H837.026L489.155 465.919C488.992 465.901 488.833 465.851 488.689 465.772C488.545 465.693 488.418 465.586 488.315 465.458C488.212 465.329 488.135 465.182 488.089 465.024C488.043 464.866 488.029 464.7 488.047 464.537C488.065 464.373 488.115 464.215 488.194 464.071C488.273 463.927 488.38 463.799 488.509 463.697C488.637 463.594 488.784 463.517 488.942 463.471C489.1 463.425 489.266 463.411 489.429 463.429L837.275 501.085C837.605 501.101 837.915 501.248 838.137 501.493C838.359 501.739 838.474 502.062 838.458 502.392C838.441 502.722 838.294 503.033 838.049 503.254C837.804 503.476 837.481 503.592 837.15 503.575V503.575Z" fill="#FF3333"/>
<path d="M793.243 681.445L778.873 671.608L762.735 678.133L768.313 626.48L798.847 629.793L793.243 681.445Z" fill="#FF3333"/>
<path opacity="0.2" d="M793.243 681.445L778.873 671.608L762.735 678.133L768.313 626.48L798.847 629.793L793.243 681.445Z" fill="black"/>
<path d="M787.864 588.55L792.894 585.637L796.082 590.518L801.711 588.949L803.579 594.453L809.406 594.328L809.855 600.156L815.533 601.451L814.512 607.204L819.692 609.894L817.276 615.199L821.61 619.109L817.949 623.641L821.186 628.498L816.529 631.984L818.447 637.488L813.042 639.705L813.566 645.508L807.788 646.33L806.816 652.083L801.013 651.41L798.647 656.74L793.218 654.673L789.607 659.255L784.825 655.893L780.193 659.43L776.407 654.972L771.053 657.238L768.488 652.008L762.735 652.855L761.564 647.151L755.761 646.554L756.06 640.726L750.581 638.709L752.3 633.13L747.518 629.818L750.581 624.837L746.746 620.454L750.955 616.394L748.34 611.164L753.42 608.3L752.2 602.597L757.829 601.078L758.053 595.25L763.905 595.175L765.574 589.596L771.252 590.966L774.241 585.96L779.396 588.725L783.555 584.615L787.864 588.55Z" fill="#FF3333"/>
<path opacity="0.2" d="M787.117 595.349L791.151 593.008L793.691 596.918L798.174 595.648L799.669 600.056L804.326 599.957L804.674 604.614L809.232 605.66L808.41 610.242L812.544 612.384L810.602 616.643L814.088 619.731L811.15 623.367L813.74 627.252L810.004 630.042L811.548 634.425L807.24 636.193L807.638 640.826L803.031 641.473L802.259 646.081L797.626 645.533L795.734 649.816L791.4 648.148L788.511 651.809L784.701 649.119L781.015 651.933L777.976 648.397L773.693 650.19L771.676 646.006L767.068 646.703L766.122 642.146L761.49 641.647L761.739 637.015L757.355 635.396L758.75 630.938L754.915 628.298L757.355 624.339L754.292 620.802L757.654 617.589L755.587 613.405L759.622 611.114L758.65 606.557L763.158 605.336L763.332 600.704L767.99 600.629L769.335 596.171L773.867 597.267L776.258 593.282L780.367 595.474L783.68 592.211L787.117 595.349Z" fill="white"/>
<path d="M784.228 624.513L787.714 624.912L787.465 627.228L783.705 626.829L782.683 631.138L780.342 630.889L781.363 626.58L777.03 626.107L776.034 630.415L773.693 630.166L774.714 625.858L771.227 625.484L771.476 623.143L775.237 623.542L776.333 619.034L772.846 618.66L773.095 616.319L776.856 616.718L777.877 612.409L780.218 612.658L779.197 616.992L783.505 617.44L784.526 613.132L786.868 613.381L785.846 617.689L789.308 618.063L789.084 620.404L785.323 620.005L784.228 624.513ZM781.887 624.264L782.957 619.756L778.649 619.283L777.553 623.791L781.887 624.264Z" fill="#FF3333"/>
<path d="M797.701 614.576L795.758 632.557L792.421 632.209L794.065 616.992L790.255 616.593L790.553 613.804L797.701 614.576Z" fill="#FF3333"/>
<path d="M508.432 570.793C509.02 570.447 509.719 570.341 510.383 570.499C511.047 570.657 511.624 571.066 511.993 571.64V571.64C512.306 572.115 512.762 572.477 513.295 572.675C513.828 572.872 514.41 572.893 514.957 572.736C515.614 572.554 516.316 572.63 516.918 572.95C517.52 573.27 517.977 573.808 518.194 574.454V574.454C518.374 574.973 518.71 575.424 519.156 575.745C519.601 576.066 520.136 576.242 520.685 576.247V576.247C521.369 576.239 522.031 576.492 522.535 576.955C523.04 577.418 523.349 578.055 523.399 578.738V578.738C523.413 579.321 523.622 579.884 523.992 580.335C524.362 580.786 524.872 581.101 525.442 581.228C526.106 581.384 526.686 581.788 527.061 582.358C527.436 582.928 527.579 583.62 527.459 584.292C527.355 584.848 527.435 585.424 527.687 585.931C527.938 586.439 528.348 586.851 528.854 587.106C529.453 587.425 529.91 587.96 530.131 588.602C530.353 589.244 530.324 589.946 530.049 590.568V590.568C529.81 591.084 529.744 591.663 529.861 592.219C529.977 592.776 530.27 593.279 530.697 593.656V593.656C531.201 594.115 531.513 594.748 531.568 595.427C531.624 596.107 531.419 596.782 530.995 597.317V597.317C530.634 597.753 530.424 598.295 530.397 598.861C530.37 599.427 530.528 599.986 530.846 600.455V600.455C531.218 601.024 531.36 601.713 531.245 602.383C531.129 603.053 530.764 603.654 530.223 604.066V604.066C529.763 604.4 529.424 604.875 529.258 605.418C529.091 605.962 529.107 606.545 529.302 607.08V607.08C529.532 607.721 529.505 608.427 529.226 609.049C528.948 609.671 528.439 610.161 527.808 610.417V610.417C527.283 610.632 526.841 611.009 526.545 611.493C526.25 611.976 526.116 612.542 526.164 613.107V613.107C526.221 613.786 526.016 614.463 525.589 614.995C525.163 615.528 524.549 615.877 523.873 615.971V615.971C523.312 616.045 522.791 616.298 522.387 616.693C521.983 617.088 521.718 617.604 521.631 618.162V618.162C521.515 618.836 521.146 619.44 520.6 619.852C520.054 620.264 519.372 620.452 518.692 620.379V620.379C518.129 620.318 517.56 620.437 517.068 620.719C516.576 621.001 516.186 621.431 515.953 621.948V621.948C515.683 622.571 515.182 623.066 514.554 623.326C513.927 623.586 513.223 623.592 512.591 623.342V623.342C512.06 623.142 511.479 623.116 510.933 623.268C510.386 623.42 509.903 623.743 509.552 624.189V624.189C509.129 624.726 508.516 625.08 507.839 625.177C507.162 625.275 506.474 625.108 505.916 624.712C505.46 624.38 504.911 624.201 504.347 624.201C503.783 624.201 503.234 624.38 502.778 624.712V624.712C502.234 625.13 501.55 625.321 500.868 625.247C500.186 625.173 499.559 624.839 499.117 624.314V624.314C498.747 623.887 498.252 623.587 497.702 623.458C497.152 623.328 496.576 623.375 496.054 623.592V623.592C495.431 623.858 494.729 623.875 494.094 623.639C493.459 623.402 492.939 622.931 492.642 622.321V622.321C492.394 621.812 491.99 621.394 491.488 621.13C490.986 620.866 490.413 620.768 489.853 620.852V620.852C489.175 620.949 488.487 620.783 487.927 620.39C487.367 619.997 486.978 619.405 486.839 618.735V618.735C486.727 618.183 486.442 617.68 486.026 617.3C485.61 616.919 485.083 616.681 484.523 616.618C483.827 616.579 483.175 616.267 482.708 615.749C482.241 615.231 481.999 614.55 482.033 613.854V613.854C482.062 613.285 481.909 612.722 481.595 612.247C481.281 611.772 480.824 611.41 480.289 611.214V611.214C479.65 610.977 479.126 610.504 478.825 609.892C478.524 609.281 478.469 608.577 478.67 607.926V607.926C478.839 607.388 478.831 606.81 478.647 606.277C478.464 605.743 478.114 605.283 477.649 604.963V604.963C477.09 604.574 476.701 603.985 476.562 603.318C476.423 602.651 476.545 601.956 476.902 601.376V601.376C477.196 600.893 477.329 600.33 477.285 599.767C477.24 599.204 477.019 598.669 476.653 598.238V598.238C476.199 597.727 475.961 597.06 475.989 596.378C476.017 595.695 476.309 595.05 476.803 594.577V594.577C477.214 594.185 477.489 593.671 477.588 593.111C477.686 592.551 477.603 591.974 477.35 591.464V591.464C477.038 590.854 476.976 590.147 477.176 589.492C477.375 588.837 477.822 588.285 478.421 587.953V587.953C478.911 587.673 479.299 587.245 479.527 586.729C479.756 586.214 479.813 585.639 479.692 585.089V585.089C479.547 584.419 479.665 583.72 480.022 583.136C480.379 582.552 480.948 582.127 481.609 581.951V581.951C482.161 581.801 482.65 581.479 483.004 581.03C483.358 580.582 483.559 580.031 483.577 579.46V579.46C483.62 578.793 483.914 578.166 484.398 577.704C484.882 577.243 485.523 576.981 486.192 576.97V576.97C486.754 576.961 487.299 576.772 487.747 576.432C488.195 576.091 488.523 575.617 488.682 575.077C488.874 574.42 489.314 573.863 489.908 573.523C490.503 573.184 491.207 573.089 491.87 573.259V573.259C492.422 573.389 493.002 573.341 493.525 573.122C494.048 572.902 494.489 572.523 494.784 572.039V572.039C495.128 571.452 495.687 571.022 496.343 570.841C496.998 570.659 497.699 570.741 498.295 571.067V571.067C498.794 571.336 499.365 571.438 499.926 571.357C500.487 571.277 501.006 571.018 501.408 570.619V570.619C501.907 570.15 502.567 569.888 503.251 569.888C503.936 569.888 504.596 570.15 505.094 570.619V570.619C505.545 571.028 506.124 571.27 506.732 571.301C507.34 571.333 507.941 571.154 508.432 570.793V570.793Z" fill="#FF3333"/>
<path opacity="0.2" d="M503.949 620.603C516.631 620.603 526.911 610.322 526.911 597.641C526.911 584.959 516.631 574.678 503.949 574.678C491.267 574.678 480.987 584.959 480.987 597.641C480.987 610.322 491.267 620.603 503.949 620.603Z" fill="white"/>
<path d="M505.169 586.234L508.083 594.154L516.227 596.246L509.602 601.451L510.125 609.844L503.127 605.137L495.307 608.25L497.623 600.131L492.244 593.656L500.661 593.357L505.169 586.234Z" fill="#FF3333"/>
<path d="M605.684 628.377C617.674 618.726 619.57 601.183 609.92 589.193C600.269 577.203 582.726 575.307 570.736 584.957C558.746 594.608 556.85 612.151 566.5 624.141C576.151 636.131 593.694 638.027 605.684 628.377Z" fill="#FF3333"/>
<path opacity="0.2" d="M609.072 609.022C608.624 613.155 606.961 617.063 604.292 620.251C601.623 623.439 598.069 625.763 594.079 626.931C590.089 628.099 585.842 628.057 581.875 626.811C577.909 625.565 574.401 623.171 571.796 619.931C569.19 616.692 567.603 612.752 567.237 608.611C566.87 604.47 567.74 600.313 569.736 596.666C571.732 593.019 574.765 590.046 578.451 588.122C582.137 586.199 586.31 585.412 590.443 585.861C595.985 586.462 601.06 589.24 604.554 593.584C608.047 597.927 609.673 603.481 609.072 609.022Z" fill="white"/>
<g opacity="0.2">
<path d="M585.587 630.739C580.842 630.224 576.357 628.313 572.698 625.249C569.039 622.184 566.371 618.104 565.031 613.523C563.691 608.942 563.739 604.067 565.17 599.514C566.6 594.961 569.349 590.934 573.068 587.943C576.787 584.951 581.309 583.13 586.063 582.709C590.817 582.288 595.59 583.286 599.776 585.577C603.963 587.868 607.377 591.349 609.586 595.579C611.794 599.81 612.699 604.601 612.185 609.346C611.844 612.497 610.885 615.551 609.364 618.331C607.842 621.112 605.788 623.566 603.318 625.552C600.848 627.539 598.011 629.02 594.968 629.91C591.926 630.8 588.738 631.081 585.587 630.739V630.739ZM590.568 584.217C586.109 583.734 581.606 584.585 577.631 586.662C573.656 588.739 570.386 591.95 568.237 595.886C566.087 599.823 565.153 604.309 565.555 608.776C565.956 613.243 567.674 617.491 570.49 620.981C573.307 624.472 577.096 627.048 581.378 628.384C585.66 629.719 590.242 629.755 594.544 628.485C598.845 627.215 602.674 624.697 605.544 621.25C608.414 617.803 610.196 613.582 610.666 609.122C611.288 603.165 609.53 597.204 605.774 592.538C602.018 587.873 596.57 584.881 590.618 584.217H590.568Z" fill="white"/>
</g>
<path d="M592.61 607.702L589.098 598.263L583.644 606.756L574.903 597.516L577.02 614.128L582.225 614.676L586.757 615.174L587.778 615.298L592.311 615.771L597.516 616.344L603.12 600.555L592.61 607.702Z" fill="#FF3333"/>
<path d="M601.85 363.411L608.001 357.782L612.982 358.33L613.928 351.158L604.913 349.091C604.913 349.091 592.461 347.372 588.027 347.347C586.209 347.347 584.093 347.347 579.037 358.48C578.19 360.472 601.85 363.411 601.85 363.411Z" fill="#EEC1BB"/>
<path d="M805.148 379.101C806.418 376.253 808.015 373.562 809.904 371.082C811.573 369.612 826.765 372.974 829.305 375.042C831.846 377.109 830.625 381.791 830.625 381.791C830.625 381.791 826.391 388.415 823.502 388.067C820.614 387.718 805.945 386.971 805.148 385.9C804.351 384.829 805.148 379.101 805.148 379.101Z" fill="#EEC1BB"/>
</svg>
