<svg width="6662" height="4964" viewBox="0 0 6662 4964" fill="none" xmlns="http://www.w3.org/2000/svg">
<path d="M6661.38 4361.88H0V4365.21H6661.38V4361.88Z" fill="#EBEBEB"/>
<path d="M5932.1 4514.42H5253.97V4517.75H5932.1V4514.42Z" fill="#EBEBEB"/>
<path d="M1327.88 4474.98H698.912V4478.32H1327.88V4474.98Z" fill="#EBEBEB"/>
<path d="M5302.46 4452.6H5046.8V4455.93H5302.46V4452.6Z" fill="#EBEBEB"/>
<path d="M4412.77 4540.93H4225.18V4544.26H4412.77V4540.93Z" fill="#EBEBEB"/>
<path d="M4106.48 4540.93H3634.32V4544.26H4106.48V4540.93Z" fill="#EBEBEB"/>
<path d="M3360.14 4484.71H2600.87V4488.04H3360.14V4484.71Z" fill="#EBEBEB"/>
<path d="M3157.5 3767.68H585.002C564.85 3767.64 545.534 3759.61 531.297 3745.35C517.059 3731.09 509.062 3711.76 509.063 3691.61V75.4069C509.238 55.3698 517.312 36.211 531.531 22.0921C545.749 7.97312 564.964 0.0343246 585.002 0H3157.5C3177.67 0 3197.02 8.01482 3211.29 22.2813C3225.55 36.5477 3233.57 55.8972 3233.57 76.073V3691.61C3233.57 3711.78 3225.55 3731.13 3211.29 3745.4C3197.02 3759.66 3177.67 3767.68 3157.5 3767.68V3767.68ZM585.002 2.66456C565.733 2.69986 547.265 10.3793 533.652 24.0173C520.039 37.6553 512.393 56.1375 512.393 75.4069V3691.61C512.393 3710.88 520.039 3729.36 533.652 3743C547.265 3756.63 565.733 3764.31 585.002 3764.35H3157.5C3176.78 3764.31 3195.26 3756.64 3208.89 3743C3222.53 3729.37 3230.2 3710.89 3230.24 3691.61V75.4069C3230.2 56.1252 3222.53 37.6434 3208.89 24.0092C3195.26 10.375 3176.78 2.69978 3157.5 2.66456H585.002Z" fill="#EBEBEB"/>
<path d="M6039.34 3767.68H3466.72C3446.55 3767.64 3427.22 3759.62 3412.96 3745.36C3398.71 3731.1 3390.68 3711.77 3390.64 3691.61V75.4069C3390.85 55.3576 3398.96 36.199 3413.2 22.0837C3427.44 7.96846 3446.67 0.0339503 3466.72 0H6039.34C6059.36 0.0693383 6078.54 8.02363 6092.73 22.1388C6106.92 36.254 6114.98 55.3928 6115.15 75.4069V3691.61C6115.15 3711.74 6107.17 3731.04 6092.96 3745.3C6078.75 3759.56 6059.47 3767.61 6039.34 3767.68V3767.68ZM3466.72 2.66456C3447.44 2.69978 3428.95 10.375 3415.32 24.0092C3401.69 37.6434 3394.01 56.1252 3393.98 75.4069V3691.61C3394.01 3710.89 3401.69 3729.37 3415.32 3743C3428.95 3756.64 3447.44 3764.31 3466.72 3764.35H6039.34C6058.63 3764.31 6077.11 3756.64 6090.74 3743C6104.38 3729.37 6112.05 3710.89 6112.09 3691.61V75.4069C6112.05 56.1252 6104.38 37.6434 6090.74 24.0092C6077.11 10.375 6058.63 2.69978 6039.34 2.66456H3466.72Z" fill="#EBEBEB"/>
<path d="M5200.81 408.609H3844.55V4361.87H5200.81V408.609Z" fill="#EBEBEB"/>
<path d="M5109.28 4281.94V488.546L3936.08 488.546V4281.94H5109.28Z" fill="#FAFAFA"/>
<path d="M3803.92 408.609H2447.66V4361.87H3803.92V408.609Z" fill="#EBEBEB"/>
<path d="M3803.92 4346.42H3844.55L3844.55 424.197H3803.92L3803.92 4346.42Z" fill="#E0E0E0"/>
<path d="M3712.39 4281.8L3712.39 488.413L2539.19 488.413V4281.8H3712.39Z" fill="#FAFAFA"/>
<path d="M5820.32 378.9H1828.15C1823.46 378.865 1818.98 376.987 1815.66 373.671C1812.34 370.356 1810.47 365.869 1810.43 361.18V361.18C1810.47 356.492 1812.34 352.005 1815.66 348.689C1818.98 345.374 1823.46 343.496 1828.15 343.461H5820.32C5825.01 343.496 5829.49 345.374 5832.81 348.689C5836.12 352.005 5838 356.492 5838.04 361.18V361.18C5838 365.869 5836.12 370.356 5832.81 373.671C5829.49 376.987 5825.01 378.865 5820.32 378.9V378.9Z" fill="#E0E0E0"/>
<path d="M5109.28 564.086V488.546L3936.08 488.546V564.086L5109.28 564.086Z" fill="#E0E0E0"/>
<path d="M5109.28 615.778V488.413L3936.08 488.413V615.778L5109.28 615.778Z" fill="#E0E0E0"/>
<path d="M3712.39 766.725V488.413L2539.19 488.413V766.725H3712.39Z" fill="#E0E0E0"/>
<g opacity="0.8">
<path d="M5374.94 260.593H4999.23V4313.25H5374.94V260.593Z" fill="#F5F5F5"/>
<path d="M5275.82 260.593H5098.49V4313.25H5275.82V260.593Z" fill="#F0F0F0"/>
<path d="M5576.51 260.593H5200.81V4313.25H5576.51V260.593Z" fill="#F5F5F5"/>
<path d="M5477.39 260.593H5300.06V4313.25H5477.39V260.593Z" fill="#F0F0F0"/>
<path d="M5764.36 260.593H5388.66V4313.25H5764.36V260.593Z" fill="#F5F5F5"/>
</g>
<g opacity="0.8">
<path d="M2417.55 260.593H1872.25V4313.25H2417.55V260.593Z" fill="#F5F5F5"/>
<path d="M2273.53 260.593H2016.13V4313.25H2273.53V260.593Z" fill="#F0F0F0"/>
<path d="M2709.98 260.593H2164.68V4313.25H2709.98V260.593Z" fill="#F5F5F5"/>
<path d="M2565.96 260.593H2308.57V4313.25H2565.96V260.593Z" fill="#F0F0F0"/>
<path d="M2982.57 260.593H2437.27V4313.25H2982.57V260.593Z" fill="#F5F5F5"/>
</g>
<path d="M1613.39 675.864H733.686V2656.56H1613.39V675.864Z" fill="#F0F0F0"/>
<path d="M1613.39 2656.69H1641.1L1641.1 675.997H1613.39L1613.39 2656.69Z" fill="#E6E6E6"/>
<path d="M1533.45 2576.62V755.801H813.622L813.622 2576.62H1533.45Z" fill="#FAFAFA"/>
<path d="M1668.81 3638.05H765.792C745.933 3638.01 726.895 3630.12 712.84 3616.09C698.785 3602.06 690.856 3583.03 690.785 3563.17V3563.17C690.856 3543.32 698.785 3524.29 712.84 3510.26C726.895 3496.23 745.933 3488.34 765.792 3488.3H1668.81C1688.65 3488.37 1707.65 3496.28 1721.68 3510.31C1735.7 3524.33 1743.61 3543.34 1743.68 3563.17V3563.17C1743.61 3583.01 1735.7 3602.01 1721.68 3616.04C1707.65 3630.07 1688.65 3637.98 1668.81 3638.05Z" fill="#F5F5F5"/>
<path d="M982.954 3638.05H834.672L666.139 4361.87H814.288L982.954 3638.05Z" fill="#E6E6E6"/>
<path d="M1278.72 3638.05H1130.57L1047.57 4361.87H1195.72L1278.72 3638.05Z" fill="#E6E6E6"/>
<path d="M1451.65 3638.05H1599.8L1768.46 4361.87H1620.18L1451.65 3638.05Z" fill="#E6E6E6"/>
<path d="M3330.69 4963.53C4757.33 4963.53 5913.84 4896.01 5913.84 4812.72C5913.84 4729.42 4757.33 4661.9 3330.69 4661.9C1904.06 4661.9 747.541 4729.42 747.541 4812.72C747.541 4896.01 1904.06 4963.53 3330.69 4963.53Z" fill="#F5F5F5"/>
<path d="M4190.94 3242.23H3054.11C3032.55 3242.23 3015.07 3259.71 3015.07 3281.26V3326.03C3015.07 3347.59 3032.55 3365.06 3054.11 3365.06H4190.94C4212.5 3365.06 4229.98 3347.59 4229.98 3326.03V3281.26C4229.98 3259.71 4212.5 3242.23 4190.94 3242.23Z" fill="#263238"/>
<path d="M4180.15 4732.78H4229.98L4172.69 3365.06H4103.68L4180.15 4732.78Z" fill="#D70000"/>
<path opacity="0.6" d="M4180.15 4732.78H4229.98L4172.69 3365.06H4103.68L4180.15 4732.78Z" fill="white"/>
<path d="M3721.45 4732.78H3671.62L3728.91 3365.06H3797.92L3721.45 4732.78Z" fill="#D70000"/>
<path opacity="0.6" d="M3721.45 4732.78H3671.62L3728.91 3365.06H3797.92L3721.45 4732.78Z" fill="white"/>
<path d="M3523.74 4732.78H3573.57L3516.14 3365.06H3447.27L3523.74 4732.78Z" fill="#D70000"/>
<path opacity="0.6" d="M3523.74 4732.78H3573.57L3516.14 3365.06H3447.27L3523.74 4732.78Z" fill="white"/>
<path d="M3064.9 4732.78H3015.07L3072.5 3365.06H3141.37L3064.9 4732.78Z" fill="#D70000"/>
<path opacity="0.6" d="M3064.9 4732.78H3015.07L3072.5 3365.06H3141.37L3064.9 4732.78Z" fill="white"/>
<g opacity="0.3">
<path d="M4172.69 3364.93H4103.68L4106.88 3423.15H4175.09L4172.69 3364.93Z" fill="#D70000"/>
<path d="M3726.51 3423.15H3794.59L3797.92 3364.93H3728.91L3726.51 3423.15Z" fill="#D70000"/>
<path d="M3447.27 3364.93L3450.46 3423.15H3518.68L3516.14 3364.93H3447.27Z" fill="#D70000"/>
<path d="M3069.96 3423.15H3138.31L3141.51 3364.93H3072.5L3069.96 3423.15Z" fill="#D70000"/>
</g>
<path d="M3491.63 4531.74L3378.92 4591.69L3201.19 4351.75L3314.04 4291.8L3491.63 4531.74Z" fill="#FFB573"/>
<path d="M3338.15 4554.65L3455.93 4472.85C3456.89 4472.03 3458.01 4471.42 3459.23 4471.06C3460.44 4470.7 3461.72 4470.6 3462.97 4470.76C3464.23 4470.93 3465.43 4471.35 3466.51 4472.01C3467.6 4472.67 3468.53 4473.54 3469.25 4474.58L3539.73 4563.71C3543.11 4568.63 3544.44 4574.67 3543.42 4580.55C3542.4 4586.43 3539.11 4591.68 3534.26 4595.16C3492.83 4622.87 3474.18 4632.59 3419.95 4664.83C3386.51 4684.55 3306.58 4731.45 3257.42 4752.9C3208.26 4774.35 3188.54 4725.05 3207.46 4711.6C3252.35 4679.89 3311.77 4617.54 3325.23 4573.71C3327.31 4566.1 3331.85 4559.4 3338.15 4554.65V4554.65Z" fill="#263238"/>
<path opacity="0.2" d="M3314.17 4291.93L3201.19 4351.75L3286.86 4467.39L3397.17 4403.97L3314.17 4291.93Z" fill="black"/>
<path d="M3586.36 2870.66C3586.36 2870.66 2710.52 2843.35 2707.05 3209.32C2702.79 3735.3 3201.99 4426.09 3201.99 4426.09L3397.31 4296.19C3397.31 4296.19 3055.18 3794.06 3052.25 3383.45C3310.31 3310.57 3918.23 3356.8 3996.96 3142.31C4061.45 2967.25 4027.74 2870.66 4027.74 2870.66H3586.36Z" fill="#D70000"/>
<path opacity="0.2" d="M3586.36 2870.66C3586.36 2870.66 2710.52 2843.35 2707.05 3209.32C2702.79 3735.3 3201.99 4426.09 3201.99 4426.09L3397.31 4296.19C3397.31 4296.19 3055.18 3794.06 3052.25 3383.45C3310.31 3310.57 3918.23 3356.8 3996.96 3142.31C4061.45 2967.25 4027.74 2870.66 4027.74 2870.66H3586.36Z" fill="black"/>
<path d="M3450.33 4329.63L3217.98 4471.92L3145.11 4397.98L3400.37 4237.17L3450.33 4329.63Z" fill="#263238"/>
<path d="M3313.77 4598.75C3323.07 4592.03 3331.57 4584.25 3339.09 4575.57C3339.48 4575.15 3339.74 4574.61 3339.84 4574.04C3339.93 4573.46 3339.85 4572.88 3339.61 4572.35C3339.36 4571.82 3338.97 4571.37 3338.47 4571.07C3337.98 4570.77 3337.4 4570.62 3336.82 4570.64C3331.89 4570.64 3288.19 4570.64 3278.87 4584.9C3277.8 4586.49 3277.15 4588.33 3276.99 4590.24C3276.83 4592.15 3277.15 4594.07 3277.93 4595.82C3278.82 4598.58 3280.42 4601.06 3282.57 4603.01C3284.72 4604.95 3287.35 4606.29 3290.19 4606.88C3298.78 4607.17 3307.18 4604.27 3313.77 4598.75V4598.75ZM3329.89 4576.77C3313.77 4593.56 3299.52 4602.48 3291.26 4601.02C3289.41 4600.61 3287.7 4599.7 3286.34 4598.38C3284.97 4597.06 3284 4595.39 3283.53 4593.56C3283.03 4592.76 3282.77 4591.83 3282.77 4590.89C3282.77 4589.95 3283.03 4589.03 3283.53 4588.23C3288.86 4580.77 3312.44 4577.44 3329.89 4576.77V4576.77Z" fill="#D70000"/>
<path d="M3338.55 4576.1C3338.93 4575.81 3339.25 4575.45 3339.48 4575.04C3339.74 4574.59 3339.88 4574.09 3339.88 4573.57C3339.88 4573.06 3339.74 4572.55 3339.48 4572.11C3338.68 4570.78 3320.03 4539.07 3302.45 4536.14C3300.08 4535.68 3297.64 4535.79 3295.32 4536.46C3293 4537.13 3290.88 4538.34 3289.12 4540C3287.12 4541.5 3285.66 4543.61 3284.99 4546.03C3284.31 4548.44 3284.46 4551 3285.39 4553.32C3290.99 4566.65 3321.76 4577.44 3336.55 4576.5L3338.55 4576.1ZM3294.72 4543.06C3295.68 4542.35 3296.78 4541.84 3297.95 4541.56C3299.12 4541.29 3300.33 4541.25 3301.51 4541.47C3312.04 4543.2 3324.83 4559.85 3331.49 4569.98C3316.97 4568.64 3295.12 4559.32 3291.52 4550.66C3290.86 4549.06 3290.46 4546.79 3293.79 4543.86C3294.05 4544.13 3294.32 4543.73 3294.72 4543.06Z" fill="#D70000"/>
<path d="M3283.13 4678.82L3156.56 4672.83L3135.78 4374L3262.35 4379.99L3283.13 4678.82Z" fill="#FFB573"/>
<path d="M3153.63 4651.24L3296.85 4646.72C3299.27 4646.53 3301.66 4647.31 3303.51 4648.88C3305.36 4650.45 3306.51 4652.69 3306.71 4655.11L3317.24 4768.22C3317.45 4774.2 3315.29 4780.03 3311.22 4784.43C3307.15 4788.82 3301.5 4791.42 3295.52 4791.67C3245.69 4791.67 3221.71 4790.2 3158.69 4791.67C3119.93 4792.87 3043.72 4798.59 2990.56 4791.67C2937.4 4784.74 2945.53 4732.65 2968.58 4730.65C3023.34 4726.25 3096.74 4688.42 3131.92 4658.97C3138.11 4654.08 3145.74 4651.36 3153.63 4651.24V4651.24Z" fill="#263238"/>
<path d="M3109.13 4674.83C3120.58 4674.21 3131.93 4672.33 3142.97 4669.23C3143.53 4669.09 3144.03 4668.78 3144.41 4668.35C3144.8 4667.93 3145.04 4667.4 3145.13 4666.83C3145.21 4666.26 3145.13 4665.68 3144.89 4665.16C3144.65 4664.64 3144.26 4664.2 3143.77 4663.9C3139.64 4661.24 3102.74 4637.26 3087.42 4644.18C3085.67 4644.95 3084.14 4646.14 3082.97 4647.66C3081.81 4649.17 3081.05 4650.96 3080.76 4652.84C3079.97 4655.64 3079.93 4658.59 3080.66 4661.4C3081.39 4664.2 3082.84 4666.77 3084.89 4668.83C3091.92 4673.82 3100.58 4675.97 3109.13 4674.83V4674.83ZM3134.58 4665.23C3111.93 4670.43 3094.61 4670.3 3089.02 4664.57C3087.72 4663.18 3086.8 4661.49 3086.35 4659.64C3085.91 4657.8 3085.96 4655.87 3086.48 4654.04C3086.6 4653.11 3086.95 4652.23 3087.51 4651.48C3088.07 4650.73 3088.82 4650.15 3089.68 4649.78C3097.94 4646.18 3119.52 4656.17 3134.58 4665.23V4665.23Z" fill="#D70000"/>
<path d="M3142.31 4669.36C3142.74 4669.48 3143.2 4669.48 3143.64 4669.36C3144.07 4669.13 3144.44 4668.78 3144.7 4668.36C3144.95 4667.94 3145.09 4667.46 3145.11 4666.97C3145.11 4665.37 3146.97 4628.6 3133.65 4616.61C3131.91 4614.94 3129.78 4613.72 3127.45 4613.07C3125.13 4612.42 3122.68 4612.35 3120.33 4612.88C3117.78 4613.02 3115.35 4614.01 3113.44 4615.71C3111.53 4617.4 3110.25 4619.69 3109.8 4622.2C3107.27 4635.52 3127.12 4662.17 3140.04 4669.36C3140.78 4669.61 3141.57 4669.61 3142.31 4669.36V4669.36ZM3123.26 4618.21C3124.43 4618.13 3125.61 4618.31 3126.71 4618.72C3127.81 4619.14 3128.81 4619.78 3129.65 4620.6C3137.65 4627.8 3139.24 4648.71 3139.38 4660.57C3127.92 4651.51 3114.6 4631.79 3116.33 4622.6C3116.33 4620.87 3117.53 4618.74 3121.79 4618.07L3123.26 4618.21Z" fill="#D70000"/>
<path opacity="0.2" d="M3262.48 4379.99L3135.78 4374L3147.64 4544.93L3273.94 4544.8L3262.48 4379.99Z" fill="black"/>
<path d="M3897.84 2870.66C3897.84 2870.66 2981.5 2957.25 3014.81 3233.17C3063.04 3630.99 3086.75 4488.44 3086.75 4488.44L3320.3 4497.63C3320.3 4497.63 3419.29 3724.91 3368.13 3316.84C3605.27 3316.84 4185.88 3333.89 4238.77 3191.07C4285.53 3064.77 4268.88 2871.32 4268.88 2871.32L3897.84 2870.66Z" fill="#D70000"/>
<path d="M3346.15 4512.02L3065.83 4498.17L3055.71 4376.13L3363.2 4397.31L3346.15 4512.02Z" fill="#263238"/>
<path d="M3694.54 2062.5C3692.8 2084.88 3691.07 2104.33 3688.54 2124.85C3686.01 2145.37 3683.34 2164.82 3680.15 2185.6C3673.89 2225.57 3665.89 2265.54 3656.57 2306.44C3638.41 2390.95 3608.87 2472.61 3568.77 2549.18C3556.8 2570.69 3543.03 2591.15 3527.6 2610.33C3510.36 2631.98 3489.97 2650.93 3467.12 2666.55C3423.15 2695.75 3372.3 2712.93 3319.63 2716.38C3273.52 2719.4 3227.21 2714.9 3182.54 2703.06C3161.46 2697.66 3140.73 2690.99 3120.46 2683.07C3110.33 2679.21 3100.47 2674.95 3090.75 2669.75C3081.02 2664.55 3071.96 2660.29 3060.77 2654.3L3095.81 2565.17L3121.26 2568.36L3147.9 2571.03C3165.75 2572.49 3183.34 2573.43 3201.19 2573.43C3233.56 2573.97 3265.86 2570.26 3297.25 2562.37C3322.41 2556.33 3345.69 2544.21 3365.06 2527.06C3373.37 2519.29 3380.79 2510.62 3387.18 2501.22C3395.05 2489.1 3402.08 2476.46 3408.23 2463.38C3422.32 2432.81 3433.86 2401.13 3442.74 2368.66C3452.86 2334.95 3460.99 2299.64 3468.31 2263.67C3475.64 2227.7 3481.64 2191.33 3487.63 2154.69L3495.49 2099.54C3497.89 2081.42 3500.56 2061.97 3502.29 2046.24L3694.54 2062.5Z" fill="#FFB573"/>
<path d="M3695.34 1953.92C3602.08 1863.46 3486.17 1916.88 3440.07 2087.14C3413.98 2178.04 3396.15 2271.09 3386.78 2365.19L3683.48 2426.48C3737.44 2264.07 3791.26 2046.64 3695.34 1953.92Z" fill="#263238"/>
<path opacity="0.3" d="M3599.81 2139.1C3620.99 2120.05 3681.21 2205.72 3717.98 2311.37C3707.59 2351.34 3695.73 2389.84 3683.61 2425.94L3505.09 2389.04C3519.34 2283.52 3552.25 2182 3599.81 2139.1Z" fill="black"/>
<path d="M3075.69 2525.2L3009.08 2499.75L3006.15 2641.11C3006.15 2641.11 3118.06 2689.47 3140.84 2633.91L3132.85 2598.61C3128.99 2583.05 3121.91 2568.48 3112.07 2555.83C3102.22 2543.19 3089.83 2532.75 3075.69 2525.2Z" fill="#FFB573"/>
<path d="M2930.48 2503.48L2891.17 2622.05L3006.68 2641.11L3009.61 2499.75L2930.48 2503.48Z" fill="#FFB573"/>
<path d="M3031.2 2597.94C3029.79 2597.96 3028.4 2597.59 3027.2 2596.86C3026 2596.12 3025.03 2595.07 3024.4 2593.81L2905.43 2364.79C2904.49 2362.99 2904.29 2360.88 2904.89 2358.94C2905.49 2356.99 2906.83 2355.36 2908.63 2354.4C2910.45 2353.5 2912.56 2353.35 2914.49 2353.97C2916.43 2354.59 2918.05 2355.94 2919.02 2357.73L3037.59 2586.35C3038.53 2588.15 3038.73 2590.26 3038.13 2592.2C3037.53 2594.15 3036.19 2595.78 3034.39 2596.74C3033.42 2597.35 3032.33 2597.75 3031.2 2597.94V2597.94Z" fill="#263238"/>
<path d="M3684.28 1863.19L3826.57 1823.22L4009.35 1814.69C4037.12 1813.36 4064.54 1821.2 4087.42 1836.99C4110.29 1852.78 4127.33 1875.66 4135.92 1902.09C4170.69 2008.67 4202.53 2162.15 4226.11 2294.98C4252.76 2444.06 4266.08 2668.02 4268.88 2871.32H3586.36C3570.77 2446.99 3516.81 2196.13 3493.1 2057.3C3488.37 2030.09 3492.69 2002.09 3505.39 1977.57C3518.1 1953.05 3538.49 1933.37 3563.44 1921.54L3684.28 1863.19Z" fill="#263238"/>
<path opacity="0.3" d="M4226.11 2294.45C4207.73 2189.86 4184.01 2072.09 4157.64 1974.7C4036 1954.18 3977.11 2220.91 4013.22 2353.2C4049.32 2485.5 4241.84 2405.29 4241.84 2405.29C4237.31 2365.46 4231.98 2328.02 4226.11 2294.45Z" fill="black"/>
<path d="M3802.32 1545.44C3831.63 1617.38 3814.04 1749.28 3756.22 1711.98C3698.4 1674.67 3784.47 1501.74 3802.32 1545.44Z" fill="#263238"/>
<path d="M3770.34 1591.54L3715.05 1676L3639.91 1790.98C3649.62 1800.82 3657.47 1812.33 3663.09 1824.95C3676.42 1852.66 3688.27 1873.31 3630.05 1913.02C3623.8 1917.03 3618.83 1922.75 3615.73 1929.51C3612.64 1936.26 3611.55 1943.76 3612.6 1951.12C3616.06 1969.11 3633.92 1986.56 3696.67 1975.5C3757.14 1963.92 3812.32 1933.3 3854.14 1888.1C3875.06 1867.19 3870.26 1851.47 3850.15 1829.75C3792.59 1768.46 3775.54 1670.54 3770.34 1591.54Z" fill="#FFB573"/>
<path opacity="0.2" d="M3657.9 1762.6L3704 1680.67C3704.97 1682.8 3706.04 1685.06 3707.19 1687.46C3711.29 1697.58 3714.58 1708 3717.05 1718.64C3725.45 1755.01 3697.2 1806.97 3666.16 1831.75L3662.56 1824.69C3656.97 1812.89 3649.8 1801.91 3641.25 1792.05C3640.7 1791.5 3640.07 1791.05 3639.38 1790.71L3657.9 1762.6Z" fill="black"/>
<path d="M3381.19 1492.15C3364 1530.92 3424.88 1640.7 3494.56 1596.33C3564.24 1551.97 3411.56 1423.54 3381.19 1492.15Z" fill="#263238"/>
<path d="M3717.05 1999.08C3716.13 1999.1 3715.24 1998.78 3714.53 1998.19C3713.82 1997.61 3713.35 1996.79 3713.19 1995.88C3708.12 1962.98 3686.54 1942.59 3662.16 1917.81C3631.25 1887.57 3596.21 1853.2 3584.76 1785.92C3584.58 1784.93 3584.8 1783.91 3585.38 1783.08C3585.95 1782.26 3586.83 1781.7 3587.82 1781.52C3588.81 1781.34 3589.83 1781.57 3590.65 1782.14C3591.48 1782.72 3592.04 1783.6 3592.22 1784.58C3603.41 1849.47 3637.51 1882.91 3667.49 1912.35C3692.14 1936.46 3715.32 1959.25 3720.78 1994.68C3720.88 1995.19 3720.87 1995.7 3720.76 1996.2C3720.65 1996.69 3720.43 1997.16 3720.13 1997.57C3719.83 1997.99 3719.45 1998.33 3719.01 1998.59C3718.58 1998.85 3718.09 1999.02 3717.58 1999.08H3717.05Z" fill="white"/>
<path d="M3745.43 1453.11C3772.07 1573.82 3792.86 1643.23 3749.83 1719.57C3684.81 1835.08 3522.27 1819.36 3460.46 1708.25C3404.77 1608.32 3371.59 1427.67 3475.11 1349.73C3498.27 1332.51 3525.4 1321.42 3553.99 1317.47C3582.58 1313.53 3611.71 1316.87 3638.66 1327.18C3665.62 1337.49 3689.54 1354.44 3708.2 1376.45C3726.87 1398.46 3739.67 1424.83 3745.43 1453.11V1453.11Z" fill="#FFB573"/>
<path d="M3781.27 1535.98C3739.7 1595 3630.72 1486.69 3639.65 1413.95C3531.47 1475.5 3413.96 1557.7 3342.68 1488.42C3260.35 1408.48 3282.86 1293.91 3379.32 1283.65C3362.27 1316.96 3459.26 1331.74 3510.82 1280.32C3598.08 1193.99 3735.97 1211.97 3733.44 1281.92C3799.92 1255.54 3872.53 1406.35 3781.27 1535.98Z" fill="#263238"/>
<path d="M3720.65 1301.5C3746.36 1282.32 3729.31 1213.97 3669.62 1193.99C3726.38 1201.31 3785.13 1243.55 3720.65 1301.5Z" fill="#263238"/>
<path d="M3819.77 1530.65C3820.92 1558.25 3811.91 1585.32 3794.46 1606.73C3771.54 1634.04 3736.24 1612.32 3727.84 1578.22C3720.52 1547.71 3729.97 1500.41 3760.08 1485.76C3790.19 1471.1 3818.17 1496.28 3819.77 1530.65Z" fill="#FFB573"/>
<path d="M3572.23 1551.04C3575.43 1560.76 3573.03 1570.62 3566.64 1572.89C3560.24 1575.15 3553.32 1569.16 3549.45 1559.56C3545.59 1549.97 3548.65 1539.98 3555.05 1537.58C3561.44 1535.18 3569.04 1541.18 3572.23 1551.04Z" fill="#263238"/>
<path d="M3462.99 1591C3466.32 1600.86 3463.79 1610.72 3457.39 1612.99C3451 1615.25 3443.4 1609.26 3440.21 1599.66C3437.01 1590.07 3439.54 1580.08 3445.8 1577.82C3452.06 1575.55 3459.79 1581.28 3462.99 1591Z" fill="#263238"/>
<path d="M3500.42 1585.41C3500.86 1614.55 3497.46 1643.62 3490.3 1671.87C3509.88 1679.07 3531.47 1662.15 3531.47 1662.15L3500.42 1585.41Z" fill="#ED893E"/>
<path d="M3558.91 1716.37C3570.26 1712.64 3580.73 1706.65 3589.68 1698.74C3598.64 1690.84 3605.89 1681.2 3611 1670.41C3611.31 1669.67 3611.32 1668.83 3611.02 1668.08C3610.72 1667.33 3610.14 1666.73 3609.4 1666.41C3608.64 1666.14 3607.81 1666.17 3607.06 1666.49C3606.32 1666.81 3605.73 1667.4 3605.41 1668.14C3599.68 1679.78 3591.36 1689.94 3581.08 1697.84C3570.8 1705.74 3558.84 1711.17 3546.12 1713.71C3545.7 1713.76 3545.3 1713.9 3544.94 1714.12C3544.58 1714.33 3544.27 1714.62 3544.02 1714.96C3543.78 1715.3 3543.61 1715.69 3543.52 1716.1C3543.43 1716.51 3543.43 1716.94 3543.51 1717.35C3543.59 1717.76 3543.76 1718.15 3544 1718.5C3544.24 1718.84 3544.55 1719.13 3544.9 1719.35C3545.26 1719.57 3545.66 1719.72 3546.07 1719.78C3546.49 1719.84 3546.91 1719.81 3547.32 1719.7C3551.25 1718.85 3555.12 1717.74 3558.91 1716.37V1716.37Z" fill="#263238"/>
<path d="M3582.23 1508.67C3583.15 1508.23 3583.94 1507.54 3584.49 1506.67C3585.34 1505.31 3585.63 1503.66 3585.28 1502.09C3584.93 1500.52 3583.98 1499.15 3582.63 1498.28C3574.74 1492.96 3565.67 1489.67 3556.21 1488.69C3546.76 1487.71 3537.2 1489.09 3528.4 1492.68C3527.67 1493.01 3527 1493.49 3526.45 1494.08C3525.9 1494.67 3525.48 1495.36 3525.21 1496.12C3524.93 1496.88 3524.82 1497.69 3524.86 1498.49C3524.91 1499.3 3525.11 1500.09 3525.47 1500.81C3526.19 1502.25 3527.44 1503.35 3528.96 1503.87C3530.48 1504.4 3532.15 1504.3 3533.6 1503.61C3540.54 1500.93 3548.04 1499.96 3555.44 1500.8C3562.83 1501.63 3569.92 1504.24 3576.1 1508.4C3576.99 1509.02 3578.04 1509.38 3579.12 1509.43C3580.21 1509.47 3581.28 1509.21 3582.23 1508.67V1508.67Z" fill="#263238"/>
<path d="M3441.4 1527.86C3441.66 1526.85 3441.66 1525.8 3441.4 1524.79C3440.76 1523.31 3439.56 1522.15 3438.06 1521.55C3436.57 1520.95 3434.9 1520.97 3433.41 1521.59C3424.54 1525.03 3416.66 1530.62 3410.47 1537.85C3404.29 1545.08 3399.99 1553.73 3397.97 1563.03C3397.71 1564.6 3398.08 1566.21 3399 1567.51C3399.93 1568.81 3401.33 1569.69 3402.9 1569.96C3404.47 1570.22 3406.09 1569.85 3407.39 1568.93C3408.69 1568 3409.56 1566.6 3409.83 1565.03C3411.56 1557.76 3415.04 1551.03 3419.96 1545.41C3424.88 1539.79 3431.1 1535.46 3438.07 1532.78C3439 1532.31 3439.79 1531.61 3440.38 1530.75C3440.96 1529.89 3441.31 1528.89 3441.4 1527.86Z" fill="#263238"/>
<path d="M4112.34 1905.16C4125.66 1926.74 4136.32 1946.19 4147.38 1966.97C4158.43 1987.76 4169.09 2008.01 4179.48 2028.79C4200.53 2070.22 4219.45 2112.86 4237.84 2156.29C4256.22 2199.72 4272.34 2244.49 4286.2 2291.12C4301.36 2340.06 4311.54 2390.41 4316.58 2441.4C4319.27 2471.16 4318.24 2501.15 4313.51 2530.66C4310.47 2550.13 4304.54 2569.03 4295.93 2586.75C4285.94 2606.77 4272.09 2624.61 4255.16 2639.24C4239.92 2652.49 4222.53 2663.03 4203.73 2670.42C4187.96 2676.61 4171.57 2681.08 4154.84 2683.74C4126.59 2688.16 4097.88 2688.92 4069.44 2686C4044.04 2683.84 4018.83 2679.79 3994.03 2673.88C3970.36 2668.49 3946.97 2661.91 3923.95 2654.16C3878.73 2639.19 3834.8 2620.56 3792.59 2598.47L3826.3 2508.81C3909.17 2524.53 3998.16 2539.05 4072.9 2534.52C4089.25 2533.67 4105.43 2530.9 4121.13 2526.26C4134.45 2522.27 4141.25 2516.27 4140.72 2514.41C4140.18 2512.54 4139.92 2514.41 4139.65 2513.07C4139.38 2511.74 4139.65 2511.61 4139.65 2504.81C4140.48 2489.84 4139.58 2474.82 4136.99 2460.05C4130.61 2422.03 4120.66 2384.69 4107.28 2348.54C4093.95 2309.9 4077.83 2270.87 4060.38 2232.23C4042.93 2193.59 4024.14 2154.82 4005.09 2116.19C3995.5 2096.83 3985.59 2077.69 3975.38 2058.77L3945.27 2002.94L4112.34 1905.16Z" fill="#FFB573"/>
<path d="M4050.12 1816.03C3921.42 1796.44 3858.14 1906.89 3918.76 2071.82C3950.06 2161.04 3989.39 2247.24 4036.26 2329.35L4313.78 2207.72C4263.28 2044.51 4181.75 1836.14 4050.12 1816.03Z" fill="#263238"/>
<path d="M3754.89 2496.55L3695.47 2514.41L3779.8 2634.31C3779.8 2634.31 3904.77 2589.55 3879.19 2535.19L3847.75 2517.34C3820.84 2501.75 3786.73 2485.63 3754.89 2496.55Z" fill="#FFB573"/>
<path d="M3642.84 2597.01L3702.4 2656.43L3779.8 2634.18L3695.47 2514.41L3642.84 2597.01Z" fill="#FFB573"/>
<path d="M3772.74 1568.76C3783.34 1568.76 3791.93 1558.38 3791.93 1545.57C3791.93 1532.77 3783.34 1522.39 3772.74 1522.39C3762.15 1522.39 3753.56 1532.77 3753.56 1545.57C3753.56 1558.38 3762.15 1568.76 3772.74 1568.76Z" fill="white"/>
<path d="M3788.59 1606.86L3777.54 1606.46L3770.74 1553.04L3791.79 1548.37L3788.59 1606.86Z" fill="white"/>
<path d="M3865.07 2613.93C3825.1 2613.93 3789.66 2607.93 3768.21 2588.48C3760.21 2580.78 3753.98 2571.42 3749.96 2561.07C3745.93 2550.72 3744.2 2539.61 3744.9 2528.53C3746.12 2473.59 3754.67 2419.06 3770.34 2366.39C3788.86 2293.78 3803.52 2236.49 3759.02 2165.75C3688.14 2053.44 3709.32 1896.36 3759.02 1797.91C3796.99 1722.63 3783.67 1638.7 3778.87 1607.79C3778.2 1603.79 3777.67 1600.6 3777.4 1598.47C3777.35 1597.96 3777.4 1597.46 3777.54 1596.98C3777.69 1596.49 3777.93 1596.05 3778.25 1595.66C3778.58 1595.27 3778.98 1594.96 3779.43 1594.73C3779.88 1594.5 3780.37 1594.37 3780.87 1594.34C3781.87 1594.22 3782.88 1594.51 3783.68 1595.13C3784.48 1595.75 3785 1596.66 3785.13 1597.67C3785.13 1599.66 3785.8 1602.73 3786.33 1606.59C3791.39 1638.7 3804.58 1723.83 3765.41 1801.37C3716.79 1897.96 3696 2051.84 3765.41 2161.09C3811.64 2234.49 3795.92 2296.18 3777.67 2367.59C3762.32 2419.54 3753.94 2473.3 3752.76 2527.46C3752.04 2537.48 3753.51 2547.53 3757.08 2556.92C3760.64 2566.31 3766.22 2574.81 3773.41 2581.82C3809.38 2614.19 3888.78 2605.93 3965.52 2597.94C3999.89 2594.48 4035.47 2590.75 4066.77 2590.75C4067.8 2590.75 4068.78 2591.15 4069.51 2591.88C4070.23 2592.6 4070.64 2593.58 4070.64 2594.61C4070.64 2595.63 4070.23 2596.62 4069.51 2597.34C4068.78 2598.07 4067.8 2598.47 4066.77 2598.47C4035.87 2598.47 4000.16 2602.07 3966.32 2605.67C3932.73 2610.12 3898.94 2612.88 3865.07 2613.93V2613.93Z" fill="white"/>
<path d="M4226.25 2585.42H4074.63C4070.22 2585.42 4066.64 2589 4066.64 2593.41V2604.07C4066.64 2608.48 4070.22 2612.06 4074.63 2612.06H4226.25C4230.66 2612.06 4234.24 2608.48 4234.24 2604.07V2593.41C4234.24 2589 4230.66 2585.42 4226.25 2585.42Z" fill="white"/>
<path d="M5177.76 2700.79H1483.62C1471.87 2700.76 1460.6 2696.07 1452.29 2687.76C1443.98 2679.45 1439.29 2668.18 1439.26 2656.43C1439.29 2644.67 1443.98 2633.41 1452.29 2625.1C1460.6 2616.78 1471.87 2612.1 1483.62 2612.06H5177.76C5189.52 2612.1 5200.78 2616.78 5209.09 2625.1C5217.4 2633.41 5222.09 2644.67 5222.12 2656.43V2656.43C5222.09 2668.18 5217.4 2679.45 5209.09 2687.76C5200.78 2696.07 5189.52 2700.76 5177.76 2700.79V2700.79Z" fill="#D70000"/>
<path opacity="0.3" d="M5177.76 2700.79H4312.98C4301.22 2700.76 4289.96 2696.07 4281.65 2687.76C4273.33 2679.45 4268.65 2668.18 4268.61 2656.43V2656.43C4268.65 2644.67 4273.33 2633.41 4281.65 2625.1C4289.96 2616.78 4301.22 2612.1 4312.98 2612.06H5177.76C5189.51 2612.1 5200.78 2616.78 5209.09 2625.1C5217.4 2633.41 5222.09 2644.67 5222.12 2656.43V2656.43C5222.09 2668.18 5217.4 2679.45 5209.09 2687.76C5200.78 2696.07 5189.51 2700.76 5177.76 2700.79V2700.79Z" fill="#263238"/>
<path d="M5136.99 4791.13H5222.13L5124.2 2700.79H5006.43L5136.99 4791.13Z" fill="#263238"/>
<path opacity="0.1" d="M5136.99 4791.13H5222.13L5124.2 2700.79H5006.43L5136.99 4791.13Z" fill="white"/>
<path d="M4353.75 4791.13H4268.61L4366.54 2700.79H4484.31L4353.75 4791.13Z" fill="#263238"/>
<path opacity="0.2" d="M4353.75 4791.13H4268.61L4366.54 2700.79H4484.31L4353.75 4791.13Z" fill="white"/>
<path d="M2307.77 4791.13H2392.77L2294.85 2700.79H2177.07L2307.77 4791.13Z" fill="#263238"/>
<path opacity="0.1" d="M2307.77 4791.13H2392.77L2294.85 2700.79H2177.07L2307.77 4791.13Z" fill="white"/>
<path d="M1524.39 4791.13H1439.26L1537.18 2700.79H1654.95L1524.39 4791.13Z" fill="#263238"/>
<path opacity="0.2" d="M1524.39 4791.13H1439.26L1537.18 2700.79H1654.95L1524.39 4791.13Z" fill="white"/>
<path d="M4403.04 2812.04H1561.96V2987.23H4403.04V2812.04Z" fill="#263238"/>
<path opacity="0.2" d="M4403.04 2812.04H1561.96V2987.23H4403.04V2812.04Z" fill="white"/>
<path d="M2029.46 2494.29C2024.53 2494.29 2019.81 2496.24 2016.31 2499.7C2012.82 2503.17 2010.84 2507.88 2010.8 2512.81V2592.74C2010.8 2597.69 2012.77 2602.43 2016.27 2605.93C2019.77 2609.43 2024.51 2611.4 2029.46 2611.4H2633.64C2635.25 2611.4 2636.79 2610.77 2637.93 2609.65C2639.08 2608.53 2639.74 2607 2639.77 2605.4V2499.62C2639.74 2498.02 2639.08 2496.49 2637.93 2495.37C2636.79 2494.25 2635.25 2493.62 2633.64 2493.62L2029.46 2494.29Z" fill="#D70000"/>
<path opacity="0.9" d="M2387.04 2505.48H2640.17V2600.87H2387.04C2384.18 2600.87 2381.43 2599.73 2379.41 2597.71C2377.39 2595.69 2376.25 2592.94 2376.25 2590.08V2516.14C2376.28 2513.3 2377.44 2510.59 2379.46 2508.59C2381.48 2506.6 2384.2 2505.48 2387.04 2505.48V2505.48Z" fill="white"/>
<path d="M2345.47 2494.29H1735.16C1724.85 2494.29 1716.5 2502.64 1716.5 2512.94V2593.54C1716.5 2603.84 1724.85 2612.2 1735.16 2612.2H2345.47C2355.77 2612.2 2364.12 2603.84 2364.12 2593.54V2512.94C2364.12 2502.64 2355.77 2494.29 2345.47 2494.29Z" fill="#D70000"/>
<path opacity="0.2" d="M2345.47 2494.29H1735.16C1724.85 2494.29 1716.5 2502.64 1716.5 2512.94V2593.54C1716.5 2603.84 1724.85 2612.2 1735.16 2612.2H2345.47C2355.77 2612.2 2364.12 2603.84 2364.12 2593.54V2512.94C2364.12 2502.64 2355.77 2494.29 2345.47 2494.29Z" fill="black"/>
<path opacity="0.5" d="M2045.31 2494.29H1952.72C1948.52 2494.29 1945.12 2497.69 1945.12 2501.88V2604.6C1945.12 2608.8 1948.52 2612.2 1952.72 2612.2H2045.31C2049.5 2612.2 2052.9 2608.8 2052.9 2604.6V2501.88C2052.9 2497.69 2049.5 2494.29 2045.31 2494.29Z" fill="#D70000"/>
<path opacity="0.5" d="M2178.94 2494.29H2086.48C2082.28 2494.29 2078.88 2497.69 2078.88 2501.88V2604.6C2078.88 2608.8 2082.28 2612.2 2086.48 2612.2H2178.94C2183.13 2612.2 2186.53 2608.8 2186.53 2604.6V2501.88C2186.53 2497.69 2183.13 2494.29 2178.94 2494.29Z" fill="#D70000"/>
<path d="M1920.21 2349.07C1917.76 2349.07 1915.34 2349.55 1913.07 2350.49C1910.81 2351.43 1908.75 2352.8 1907.02 2354.53C1905.29 2356.27 1903.92 2358.32 1902.98 2360.58C1902.04 2362.85 1901.56 2365.27 1901.56 2367.72V2475.64C1901.56 2478.09 1902.04 2480.51 1902.98 2482.77C1903.92 2485.04 1905.29 2487.09 1907.02 2488.83C1908.75 2490.56 1910.81 2491.93 1913.07 2492.87C1915.34 2493.81 1917.76 2494.29 1920.21 2494.29H2574.76C2576.36 2494.25 2577.89 2493.59 2579.01 2492.45C2580.13 2491.3 2580.75 2489.76 2580.75 2488.16V2354.93C2580.75 2353.33 2580.13 2351.79 2579.01 2350.65C2577.89 2349.5 2576.36 2348.84 2574.76 2348.8L1920.21 2349.07Z" fill="#D70000"/>
<path opacity="0.9" d="M2278.19 2360.4H2581.15V2483.1H2278.19C2275.33 2483.1 2272.59 2481.96 2270.56 2479.94C2268.54 2477.91 2267.4 2475.17 2267.4 2472.31V2371.45C2267.37 2370.01 2267.62 2368.58 2268.15 2367.24C2268.67 2365.9 2269.46 2364.68 2270.47 2363.65C2271.47 2362.62 2272.67 2361.8 2274 2361.24C2275.33 2360.68 2276.75 2360.39 2278.19 2360.4Z" fill="white"/>
<path d="M2236.09 2349.07H1722.9C1712.6 2349.07 1704.25 2357.42 1704.25 2367.72V2475.5C1704.25 2485.8 1712.6 2494.16 1722.9 2494.16H2236.09C2246.39 2494.16 2254.74 2485.8 2254.74 2475.5V2367.72C2254.74 2357.42 2246.39 2349.07 2236.09 2349.07Z" fill="#D70000"/>
<path opacity="0.2" d="M2236.09 2349.07H1722.9C1712.6 2349.07 1704.25 2357.42 1704.25 2367.72V2475.5C1704.25 2485.8 1712.6 2494.16 1722.9 2494.16H2236.09C2246.39 2494.16 2254.74 2485.8 2254.74 2475.5V2367.72C2254.74 2357.42 2246.39 2349.07 2236.09 2349.07Z" fill="white"/>
<path opacity="0.6" d="M2188 2377.85H1812.16C1805.91 2377.85 1800.84 2382.92 1800.84 2389.17V2454.05C1800.84 2460.31 1805.91 2465.38 1812.16 2465.38H2188C2194.25 2465.38 2199.32 2460.31 2199.32 2454.05V2389.17C2199.32 2382.92 2194.25 2377.85 2188 2377.85Z" fill="#D70000"/>
<path d="M2112.19 2279.66C2101.93 2279.66 2093.54 2284.59 2093.54 2290.58V2338.15C2093.54 2344.14 2101.93 2349.07 2112.19 2349.07H2716.51C2719.84 2349.07 2722.51 2347.47 2722.51 2345.61V2283.26C2722.51 2281.26 2719.84 2279.66 2716.51 2279.66H2112.19Z" fill="#D70000"/>
<path opacity="0.9" d="M2467.38 2286.19H2722.51V2342.41H2467.38C2465.18 2342.41 2463.08 2341.54 2461.53 2339.99C2459.99 2338.44 2459.12 2336.34 2459.12 2334.15V2294.18C2459.18 2292.04 2460.09 2290 2461.63 2288.51C2463.17 2287.02 2465.23 2286.19 2467.38 2286.19V2286.19Z" fill="white"/>
<path d="M2432.6 2279.66H1813.49C1805.62 2279.66 1799.24 2286.04 1799.24 2293.91V2334.95C1799.24 2342.82 1805.62 2349.2 1813.49 2349.2H2432.6C2440.48 2349.2 2446.86 2342.82 2446.86 2334.95V2293.91C2446.86 2286.04 2440.48 2279.66 2432.6 2279.66Z" fill="#D70000"/>
<path opacity="0.2" d="M2432.6 2279.66H1813.49C1805.62 2279.66 1799.24 2286.04 1799.24 2293.91V2334.95C1799.24 2342.82 1805.62 2349.2 1813.49 2349.2H2432.6C2440.48 2349.2 2446.86 2342.82 2446.86 2334.95V2293.91C2446.86 2286.04 2440.48 2279.66 2432.6 2279.66Z" fill="black"/>
<path opacity="0.5" d="M1891.3 2279.66H1871.98C1870.44 2279.66 1869.18 2280.91 1869.18 2282.46V2346.41C1869.18 2347.95 1870.44 2349.2 1871.98 2349.2H1891.3C1892.84 2349.2 1894.1 2347.95 1894.1 2346.41V2282.46C1894.1 2280.91 1892.84 2279.66 1891.3 2279.66Z" fill="#D70000"/>
<path opacity="0.5" d="M2393.83 2279.66H2374.91C2373.37 2279.66 2372.12 2280.91 2372.12 2282.46V2346.41C2372.12 2347.95 2373.37 2349.2 2374.91 2349.2H2393.83C2395.38 2349.2 2396.63 2347.95 2396.63 2346.41V2282.46C2396.63 2280.91 2395.38 2279.66 2393.83 2279.66Z" fill="#D70000"/>
<path d="M2002.94 2179.21C1992.69 2179.21 1984.29 2184.13 1984.29 2190.13V2268.6C1984.29 2274.73 1992.69 2279.66 2002.94 2279.66H2657.49C2660.82 2279.66 2663.62 2278.06 2663.62 2276.06V2182.8C2663.62 2180.8 2660.82 2179.21 2657.49 2179.21H2002.94Z" fill="#D70000"/>
<path opacity="0.9" d="M2358.13 2185.73H2663.62V2273H2358.13C2355.94 2273 2353.84 2272.13 2352.29 2270.58C2350.74 2269.03 2349.87 2266.93 2349.87 2264.74V2193.99C2349.87 2191.8 2350.74 2189.7 2352.29 2188.15C2353.84 2186.6 2355.94 2185.73 2358.13 2185.73V2185.73Z" fill="white"/>
<path d="M2323.22 2179.21H1801.24C1793.36 2179.21 1786.98 2185.59 1786.98 2193.46V2265.4C1786.98 2273.28 1793.36 2279.66 1801.24 2279.66H2323.22C2331.1 2279.66 2337.48 2273.28 2337.48 2265.4V2193.46C2337.48 2185.59 2331.1 2179.21 2323.22 2179.21Z" fill="#D70000"/>
<path opacity="0.1" d="M2323.22 2179.21H1801.24C1793.36 2179.21 1786.98 2185.59 1786.98 2193.46V2265.4C1786.98 2273.28 1793.36 2279.66 1801.24 2279.66H2323.22C2331.1 2279.66 2337.48 2273.28 2337.48 2265.4V2193.46C2337.48 2185.59 2331.1 2179.21 2323.22 2179.21Z" fill="black"/>
<path d="M3462.85 2589.95H2913.02C2910.08 2589.95 2907.25 2591.11 2905.16 2593.18C2903.06 2595.25 2901.87 2598.06 2901.83 2601V2601C2901.87 2603.95 2903.06 2606.76 2905.16 2608.83C2907.25 2610.9 2910.08 2612.06 2913.02 2612.06H3462.85C3465.79 2612.06 3468.6 2610.9 3470.67 2608.82C3472.75 2606.75 3473.91 2603.94 3473.91 2601V2601C3473.91 2598.07 3472.75 2595.26 3470.67 2593.19C3468.6 2591.11 3465.79 2589.95 3462.85 2589.95V2589.95Z" fill="white"/>
<path d="M4538.53 2563.57H4899.85L4932.49 2610.86H4505.89L4538.53 2563.57Z" fill="#263238"/>
<path d="M5096.49 1756.34C5096.49 1765.96 5093.64 1775.36 5088.3 1783.36C5082.95 1791.35 5075.36 1797.59 5066.47 1801.27C5057.59 1804.95 5047.81 1805.91 5038.38 1804.03C5028.94 1802.16 5020.28 1797.53 5013.48 1790.73C5006.68 1783.93 5002.05 1775.26 5000.17 1765.83C4998.29 1756.39 4999.26 1746.62 5002.94 1737.73C5006.62 1728.85 5012.85 1721.25 5020.85 1715.91C5028.84 1710.56 5038.25 1707.71 5047.86 1707.71C5054.25 1707.7 5060.58 1708.94 5066.49 1711.38C5072.4 1713.82 5077.77 1717.4 5082.29 1721.92C5086.81 1726.44 5090.39 1731.8 5092.83 1737.71C5095.26 1743.62 5096.51 1749.95 5096.49 1756.34V1756.34Z" fill="black"/>
<path d="M4731.18 2595.54C4728.65 2595.53 4726.15 2594.9 4723.92 2593.71C4721.69 2592.51 4719.79 2590.78 4718.38 2588.68C4716.97 2586.57 4716.1 2584.15 4715.85 2581.63C4715.59 2579.11 4715.96 2576.57 4716.92 2574.23L5065.05 1750.35C5066.84 1746.9 5069.87 1744.27 5073.52 1742.95C5077.18 1741.64 5081.19 1741.75 5084.76 1743.26C5088.34 1744.77 5091.22 1747.57 5092.82 1751.11C5094.43 1754.64 5094.64 1758.65 5093.43 1762.34L4745.3 2586.08C4744.13 2588.87 4742.17 2591.25 4739.66 2592.93C4737.15 2594.61 4734.2 2595.52 4731.18 2595.54Z" fill="#263238"/>
<path d="M5079.17 1771.93C5075.86 1771.89 5072.65 1770.82 5069.98 1768.86L4437.81 1294.71C4434.56 1292.27 4432.41 1288.64 4431.84 1284.62C4431.26 1280.59 4432.31 1276.51 4434.75 1273.26C4437.19 1270.01 4440.82 1267.86 4444.84 1267.28C4448.86 1266.71 4452.95 1267.75 4456.2 1270.19L5088.5 1744.08C5091.05 1746.05 5092.93 1748.76 5093.87 1751.84C5094.81 1754.92 5094.76 1758.22 5093.73 1761.27C5092.7 1764.32 5090.75 1766.98 5088.14 1768.87C5085.53 1770.75 5082.39 1771.78 5079.17 1771.8V1771.93Z" fill="#263238"/>
<path d="M5127.8 1756.34C5127.8 1765.96 5124.95 1775.36 5119.6 1783.36C5114.26 1791.35 5106.67 1797.59 5097.78 1801.27C5088.89 1804.95 5079.12 1805.91 5069.68 1804.03C5060.25 1802.16 5051.59 1797.53 5044.79 1790.73C5037.99 1783.93 5033.35 1775.26 5031.48 1765.83C5029.6 1756.39 5030.56 1746.62 5034.24 1737.73C5037.93 1728.85 5044.16 1721.25 5052.15 1715.91C5060.15 1710.56 5069.55 1707.71 5079.17 1707.71C5085.56 1707.7 5091.89 1708.94 5097.8 1711.38C5103.71 1713.82 5109.08 1717.4 5113.6 1721.92C5118.11 1726.44 5121.7 1731.8 5124.13 1737.71C5126.57 1743.62 5127.82 1749.95 5127.8 1756.34V1756.34Z" fill="#263238"/>
<path d="M4447.01 1330.94C4473.79 1330.94 4495.5 1309.23 4495.5 1282.45C4495.5 1255.67 4473.79 1233.95 4447.01 1233.95C4420.22 1233.95 4398.51 1255.67 4398.51 1282.45C4398.51 1309.23 4420.22 1330.94 4447.01 1330.94Z" fill="#263238"/>
<path d="M4379.06 1504.14C4363.86 1519.34 4344.49 1529.7 4323.4 1533.89C4302.31 1538.09 4280.45 1535.93 4260.59 1527.71C4240.72 1519.48 4223.74 1505.54 4211.8 1487.67C4199.85 1469.79 4193.47 1448.77 4193.47 1427.27C4193.47 1405.77 4199.85 1384.75 4211.8 1366.87C4223.74 1348.99 4240.72 1335.06 4260.59 1326.83C4280.45 1318.6 4302.31 1316.45 4323.4 1320.64C4344.49 1324.84 4363.86 1335.19 4379.06 1350.4C4399.42 1370.8 4410.85 1398.45 4410.85 1427.27C4410.85 1456.09 4399.42 1483.74 4379.06 1504.14V1504.14Z" fill="#D70000"/>
<path opacity="0.7" d="M4379.06 1504.14C4363.86 1519.34 4344.49 1529.7 4323.4 1533.89C4302.31 1538.09 4280.45 1535.93 4260.59 1527.71C4240.72 1519.48 4223.74 1505.54 4211.8 1487.67C4199.85 1469.79 4193.47 1448.77 4193.47 1427.27C4193.47 1405.77 4199.85 1384.75 4211.8 1366.87C4223.74 1348.99 4240.72 1335.06 4260.59 1326.83C4280.45 1318.6 4302.31 1316.45 4323.4 1320.64C4344.49 1324.84 4363.86 1335.19 4379.06 1350.4C4399.42 1370.8 4410.85 1398.45 4410.85 1427.27C4410.85 1456.09 4399.42 1483.74 4379.06 1504.14V1504.14Z" fill="white"/>
<path d="M4447.01 1282.45C4425.39 1260.81 4399.72 1243.64 4371.47 1231.93C4343.21 1220.22 4312.92 1214.19 4282.34 1214.19C4251.75 1214.19 4221.46 1220.22 4193.21 1231.93C4164.95 1243.64 4139.28 1260.81 4117.67 1282.45L4447.01 1612.06C4468.67 1590.43 4485.86 1564.74 4497.58 1536.46C4509.31 1508.18 4515.35 1477.87 4515.35 1447.25C4515.35 1416.64 4509.31 1386.33 4497.58 1358.05C4485.86 1329.77 4468.67 1304.08 4447.01 1282.45V1282.45Z" fill="#263238"/>
<g opacity="0.2">
<path d="M4117.53 1282.45L2734.36 2612.06H4153.37L4447.01 1611.92L4117.53 1282.45Z" fill="#D70000"/>
<path opacity="0.7" d="M4117.53 1282.45L2734.36 2612.06H4153.37L4447.01 1611.92L4117.53 1282.45Z" fill="white"/>
</g>
</svg>
